<?xml version="1.0" standalone="no"?>
<!DOCTYPE svg PUBLIC "-//W3C//DTD SVG 1.1//EN" "http://www.w3.org/Graphics/SVG/1.1/DTD/svg11.dtd" >
<!--
2013-9-30: Created.
-->
<svg>
<metadata>
Created by iconfont
</metadata>
<defs>

<font id="iconfont" horiz-adv-x="1024" >
  <font-face
    font-family="iconfont"
    font-weight="500"
    font-stretch="normal"
    units-per-em="1024"
    ascent="896"
    descent="-128"
  />
    <missing-glyph />
    
    <glyph glyph-name="huwai" unicode="&#58955;" d="M768.818176 327.505664c-82.36032 0-149.380096-66.987008-149.380096-149.36064 0-82.33472 67.019776-149.342208 149.380096-149.342208 82.33472 0 149.354496 67.007488 149.354496 149.342208C918.173696 260.517632 851.15392 327.505664 768.818176 327.505664zM766.998528 59.509504c-68.814848 0-124.582912 55.76192-124.582912 124.556288 0 68.789248 55.768064 124.582912 124.582912 124.582912 68.774912 0 124.550144-55.793664 124.550144-124.582912C891.548672 115.271424 835.77344 59.509504 766.998528 59.509504zM957.42464 228.351744 850.850816 470.385408c-6.362112 17.108992-19.618816 34.683904-38.883328 49.004544-10.77248 57.529344-64.516096 97.806336-123.517952 90.668032-29.72672-3.588096-56.287232-18.547712-74.774528-42.11712-15.157248-19.29728-23.261184-42.569728-23.76704-66.691072-11.671552-14.262272-18.42176-30.818304-18.51392-48.69632l0-27.328512c-3.864576-4.186112-25.416704-12.1856-59.073536-12.1856-33.665024 0-55.216128 7.999488-59.061248 12.1856l0 27.401216c-0.07168 17.876992-6.854656 34.413568-18.528256 48.643072-0.479232 24.147968-8.583168 47.374336-23.752704 66.671616-18.495488 23.569408-45.068288 38.528-74.795008 42.11712-58.93632 7.11168-112.738304-33.138688-123.498496-90.668032-19.2768-14.321664-32.521216-31.896576-38.902784-49.004544L68.468736 232.176384l-1.2288-3.82464c-3.464192-14.925824-5.21216-29.800448-5.21216-44.285952 0-107.86816 87.7568-195.638272 195.618816-195.638272 95.926272 0 175.7952 69.472256 192.338944 160.71168l0.611328 0c0-2.08384-0.789504-3.482624-1.045504-3.831808 3.647488 4.462592 26.48064 13.20448 62.768128 13.20448 36.28032 0 59.132928-8.740864 62.780416-13.20448-0.27648 0.349184-1.057792 1.747968-1.057792 3.831808l0.62464 0c16.54272-91.240448 96.418816-160.71168 192.331776-160.71168 107.86816 0 195.62496 87.770112 195.62496 195.638272C962.623488 198.551296 960.87552 213.42592 957.42464 228.351744zM332.053504 575.795968c20.585472-2.47808 38.981632-12.816384 51.765248-29.142016 3.325952-4.219904 6.119424-8.722432 8.471552-13.415424-22.63552 10.706944-50.128896 16.91136-80.086016 16.91136-19.71712 0-37.627904-2.937856-53.638144-7.880704C274.379776 565.509888 302.273536 579.411712 332.053504 575.795968zM257.206272 5.805824c-95.058944 0-172.352512 77.292544-172.352512 172.3392 0 95.044608 77.293568 172.370944 172.352512 172.370944 95.012864 0 172.338176-77.326336 172.338176-172.370944C429.544448 83.098368 352.218112 5.805824 257.206272 5.805824zM453.25824 425.0816c0.388096-0.545792 1.071104-1.87904 1.071104-3.897344l-1.071104 0L453.25824 425.0816zM454.329344 227.747584c0-1.984512-0.663552-3.28704-1.038336-3.825664l0 3.825664L454.329344 227.747584zM571.360256 185.13792c-17.595392 5.51424-39.073792 7.892992-59.040768 7.892992-19.974144 0-41.440256-2.378752-59.02848-7.892992l0 38.587392c3.871744 4.187136 25.396224 12.179456 59.02848 12.179456 33.625088 0 55.16288-7.99232 59.040768-12.179456L571.360256 185.13792zM571.360256 223.92192c-0.367616 0.538624-1.026048 1.841152-1.026048 3.825664l1.026048 0L571.360256 223.92192zM571.393024 421.184256l-1.058816 0c0 2.018304 0.658432 3.351552 1.058816 3.897344L571.393024 421.184256zM640.818176 546.653952c12.81024 16.325632 31.194112 26.66496 51.77856 29.142016 29.800448 3.61472 57.673728-10.28608 73.481216-33.526784-16.004096 4.942848-33.91488 7.880704-53.632 7.880704-29.958144 0-57.463808-6.204416-80.093184-16.91136C634.699776 537.93152 637.50656 542.434048 640.818176 546.653952zM768.818176 5.805824c-95.044608 0-172.378112 77.292544-172.378112 172.3392 0 95.044608 77.333504 172.370944 172.378112 172.370944 95.026176 0 172.352512-77.326336 172.352512-172.370944C941.170688 83.098368 863.844352 5.805824 768.818176 5.805824zM257.206272 327.505664c-82.367488 0-149.380096-66.987008-149.380096-149.36064 0-82.33472 67.013632-149.342208 149.380096-149.342208 82.340864 0 149.341184 67.007488 149.341184 149.342208C406.547456 260.517632 339.546112 327.505664 257.206272 327.505664zM257.646592 59.509504c-68.7616 0-124.536832 55.76192-124.536832 124.556288 0 68.789248 55.774208 124.582912 124.536832 124.582912 68.814848 0 124.575744-55.793664 124.575744-124.582912C382.222336 115.271424 326.46144 59.509504 257.646592 59.509504z"  horiz-adv-x="1024" />

    
    <glyph glyph-name="qianjin" unicode="&#59052;" d="M736.102 286.944l0.172 0.172-41.082 41.085-328.721 331.523-82.683-81.975 287.994-290.448-287.995-287.941 82.326-82.334 370.159 369.745z"  horiz-adv-x="1024" />

    
    <glyph glyph-name="dizhi" unicode="&#59050;" d="M512 497.86965763c-39.23797282 0-71.18510611 31.94713328-71.18510611 71.18510611 0 39.23797282 31.94713328 71.18510611 71.18510611 71.18510611s71.18510611-31.94713328 71.18510611-71.18510611C583.18510611 529.81679091 551.23797282 497.86965763 512 497.86965763zM512 611.73931525c-23.59580798 0-42.68455152-19.22130427-42.68455152-42.68455151 0-23.59580798 19.08874354-42.68455152 42.68455152-42.68455153s42.68455152 19.08874354 42.68455152 42.68455153C554.68455152 592.51801101 535.59580798 611.73931525 512 611.73931525zM511.60231785 148.04192016000002l-11.00253968 13.52119333c-0.53024288 0.53024288-47.32417669 58.32671636-93.45530691 132.82584045-62.70122009 101.27638932-94.51579266 183.99427799-94.51579266 245.90013377 0 117.8464792 89.34592461 213.82043977 199.23876067 213.82043978 53.42196976 0 103.52992155-22.40276151 141.17716576-62.96634154 37.24956205-40.29845858 57.92903421-93.85298907 58.19415564-150.72153751 0.26512144-61.90585578-31.54945113-144.62374445-94.64835336-245.90013377-46.39625165-74.49912409-93.4553069-132.29559757-93.9855498-132.82584045L511.60231785 148.04192016000002zM512 725.6089729c-94.1181105 0-170.73820609-83.11557083-170.73820609-185.31988519 0-116.25575058 131.23511182-295.61040339 170.47308465-346.64628021 39.50309427 51.16843754 171.5335704 230.52309037 171.13588825 346.64628021-0.26512144 49.84283035-18.16081851 96.50420343-50.63819467 131.50023327C600.02031742 706.52022935 557.3357659 725.6089729 512 725.6089729zM977.28812373 13.890472509999995L46.71187627 13.890472509999995 218.90825026 327.13145153999994 355.44579085 327.13145153999994 355.44579085 298.63089696 235.74346158 298.63089696 94.83141727 42.391027099999974 929.16858273 42.391027099999974 788.25653842 298.63089696 668.55420915 298.63089696 668.55420915 327.13145153999994 805.09174974 327.13145153999994Z"  horiz-adv-x="1024" />

    
    <glyph glyph-name="shaixuan" unicode="&#59059;" d="M597.265067-59.733333c-0.273067 0.477867-0.4096 1.058133-0.785067 1.399467-7.5776 6.621867-10.717867 15.0528-10.683733 25.019733 0.1024 18.466133 0.034133 36.9664 0.034133 55.432533 0 126.600533 0.068267 253.201067-0.1024 379.8016-0.034133 12.014933 3.925333 21.367467 12.356267 29.764267 83.387733 83.182933 166.673067 166.536533 249.9584 249.821867 6.997333 7.031467 12.6976 14.813867 15.496533 24.610133 8.430933 29.0816-13.175467 59.323733-43.485867 60.654933-1.604267 0.068267-3.242667 0.068267-4.846933 0.068267-202.171733 0-404.2752 0-606.446933 0-22.6304 0-40.618667-12.049067-47.479467-32.290133C155.886933 718.609067 158.4128 703.5904 168.584533 690.107733c3.3792-4.437333 7.133867-8.567467 11.0592-12.4928 79.394133-79.496533 158.8224-158.993067 238.3872-238.353067 8.328533-8.2944 12.151467-17.6128 12.117333-29.3888-0.2048-86.254933-0.170667-172.544-0.068267-258.7648 0-13.175467-4.744533-23.4496-16.554667-29.730133-18.8416-10.0352-42.359467 2.935467-44.100267 24.132267-0.170667 2.321067-0.170667 4.7104-0.170667 7.031467 0 81.442133-0.034133 162.850133 0.068267 244.258133 0 3.549867-1.024 5.973333-3.515733 8.430933-78.370133 78.267733-156.808533 156.501333-234.939733 235.008C109.568 661.6064 97.757867 687.7184 97.655467 718.267733 97.4848 769.4336 131.822933 811.963733 178.5856 823.842133 188.416 826.333867 198.8608 827.528533 208.9984 827.562667 411.0336 827.733333 613.000533 827.733333 815.0016 827.665067c42.2912 0 74.683733-18.261333 96.733867-54.408533 21.9136-35.976533 18.875733-86.050133-7.031467-119.261867-4.5056-5.768533-9.352533-11.332267-14.5408-16.4864-79.940267-80.042667-159.914667-160.017067-239.957333-239.889067-2.594133-2.594133-3.652267-5.085867-3.652267-8.8064 0.068267-138.069333-0.034133-276.104533 0.2048-414.139733 0.034133-13.141333-1.365333-25.088-11.605333-34.440533C622.4896-59.733333 609.8944-59.733333 597.265067-59.733333z"  horiz-adv-x="1024" />

    
    <glyph glyph-name="qianjin-copy" unicode="&#58884;" d="M598.144 384.006l-289.824-289.83c-17.030-17.024-17.030-44.64 0-61.658l12.339-12.333c17.024-17.030 44.627-17.030 61.658 0l320.614 320.627c0.006 0.006 0.019 0.013 0.026 0.026l12.333 12.333c17.030 17.024 17.030 44.634 0 61.651l-12.333 12.346c-0.038 0.045-0.090 0.077-0.128 0.115l-320.525 320.531c-17.030 17.037-44.634 17.037-61.658 0l-12.339-12.333c-17.030-17.030-17.030-44.627 0-61.658l289.837-289.818z"  horiz-adv-x="1024" />

    
    <glyph glyph-name="daishouhuo" unicode="&#59896;" d="M936.19944107 754.9913397299999l-517.14020374 0c-48.58166613 0-88.10475307-39.52308693-88.10475306-88.10475306l0-58.07794774-133.48388054 0.0207392c-10.1162688 0-31.24604053-12.83853653-60.5819104-40.78598293-12.65625067-12.04827093-27.1746464-27.67784-41.9659232-45.26015147l-0.1593632-0.1822848-11.11501546-13.22493653 0.2466848 0c-0.47590613-0.589424-0.9288896-1.1777568-1.40479467-1.76827307-11.88781653-14.83602987-22.2977056-30.3084192-32.2327808-44.69474026-7.48787307-10.88906987-13.9759072-21.09593493-19.32766187-30.3291584-17.0365472-29.33150293-17.03218133-42.92100907-17.03218133-51.56371734l0-240.96759786c0-24.05397227 18.3409216-44.7656896 40.98354987-54.71604587 2.6513184-73.62783573 63.3653024-132.71108053 137.62840746-132.71108053 72.22194987 0 131.63265173 55.8774304 137.2834848 126.66948053l53.6005056 0.82628587 0.0010912 1.50084906 25.51989227 0c3.33133973-0.3842176 6.71179733-0.60252267 10.14464853-0.60252266l217.55762667 0c4.81690667-71.60632853 64.60091093-128.3940928 137.40682773-128.3940928s132.5888288 56.7877632 137.40573547 128.3940928l24.77001387 0c48.58166613 0 88.10584533 39.52308693 88.10584533 88.10475306l0 46.09953494 0 18.8768608 0 432.78593493C1024.3052864 715.46716053 984.78110827 754.9913397299999 936.19944107 754.9913397299999zM93.93821333 414.80397227l3.2200032 5.2633408 0.3634784 0.49882773c7.00869227 11.16085973 3.92731307 9.35438293 13.40722134 22.15144107 0.06876587 0.09059627 3.74830187 4.59314347 8.641616 10.5659776 5.33101547 7.14840747-0.1615456-0.4049568 5.59953173 6.76419093l105.04415467-0.02947093c7.03052267 0 15.97449173-5.1116192 15.97449173-12.18907734l-0.148448-65.160864c0-7.07745813-10.6314688-7.7432896-17.66308373-7.7432896l-142.1713408 0-1.50303254-0.22703786-0.93434666-0.0010912C83.92673067 375.78517120000004 80.14568213 392.02381227 93.93821333 414.80397227zM256.957712 310.79349333000005c33.4836704 0 51.1205568 8.2344768 54.94090027 36.61416854l-1.0915264 120.61369066c0 33.80021333-3.0813792 56.21362027-36.56614187 56.21362027l-90.95909547-0.25978347c0 0-11.27874453-1.32074773-10.0540512-0.1178848 16.33360427 16.084736 24.01467733 18.54612907 26.50881494 19.77191254l128.47813973 0c0.80445547 0 1.733344-0.21939733 2.73973227-0.60361387l0-373.90244053c0-8.84464 1.32402133-17.38256107 3.76030933-25.4423936l-13.40176427 0-1.82175786 0c-20.88199573 49.53784427-69.93629333 84.4012032-126.9827488 84.4012032-47.38207893 0-89.25194773-24.05288-114.0427008-60.58627627l0.3743936 143.29779627L256.957712 310.79349333000005zM192.50852373 18.117004800000018c-39.83198933 0-72.2383232 32.4052416-72.2383232 72.23723093s32.4052416 72.23723093 72.2383232 72.23723094c39.83089707 0 72.23723093-32.4052416 72.23723094-72.23723094S232.3394208 18.117004800000018 192.50852373 18.117004800000018zM774.02369173 18.117004800000018c-39.83198933 0-72.2383232 32.4052416-72.2383232 72.23723093s32.4052416 72.23723093 72.2383232 72.23723094c39.83089707 0 72.23723093-32.4052416 72.23723094-72.23723094S813.85458987 18.117004800000018 774.02369173 18.117004800000018zM958.8136896 169.12425386999996c0-12.4685088-10.14464853-22.61315733-22.61424853-22.61315734l-36.4264256 0c-21.53363733 48.0293536-69.79548587 81.57087573-125.74932374 81.57087574s-104.2167776-33.54152107-125.75041493-81.57087574l-229.21403947 0c-12.4696 0-22.61315733 10.14355733-22.61315733 22.61315734l0 497.76233173c0 12.4685088 10.14355733 22.61315733 22.61315733 22.61315733l517.14020374 0c12.4696 0 22.61424853-10.14355733 22.61424853-22.61315733l0-432.78593493 0-18.8768608L958.8136896 169.12425386999996z"  horiz-adv-x="1024" />

    
    <glyph glyph-name="shandian" unicode="&#58957;" d="M912.835886 452.463993a28.455121 28.455121 0 0 1-7.062602 4.913114 28.915725 28.915725 0 0 1-17.707683 6.039037H610.014034L703.414385 857.335325a26.612703 26.612703 0 0 1 0.153535 11.668647 27.124486 27.124486 0 0 1-8.393237 18.577714 29.120438 29.120438 0 0 1-40.277302-0.204714L110.667606 354.099349A27.022129 27.022129 0 0 1 102.427904 332.604473a28.045695 28.045695 0 0 1 28.352764-29.785756h287.110122l-95.652196-387.982501a26.817416 26.817416 0 0 1-0.767674-6.601997 26.970951 26.970951 0 0 1 7.011424-28.19923c5.578432-5.322541 12.794569-7.983811 20.010705-7.983811a28.813369 28.813369 0 0 1 20.266597 8.188524L913.040599 413.466148a26.970951 26.970951 0 0 1-0.204713 38.997845z"  horiz-adv-x="1024" />

    
    <glyph glyph-name="wanju" unicode="&#58883;" d="M348.211-9.728c19.968 98.714 59.443 165.427 163.84 165.427h61.44c70.63 0 117.043-83.763 122.931-165.427h-348.21z m81.869 354.304v47.258h204.8v-47.232h-204.8zM1024 132.045c0 3.174-20.096 46.848-20.531 47.257-92.928-28.62-177.715-233.088-204.775 141.748l80.717-28.826 87.655 94.387-86.272 52.813-0.128 141.44c-42.19 32.614-53.12 70.81-102.4 70.81-113.306 0-62.055-165.428-163.84-165.428H409.549L217.088 896c-44.416-35.149-53.248-12.416-53.248-78.925v-70.81C119.22 732.468 0 637.67 0 580.839v-70.912c0-55.27 33.997-94.515 81.869-94.515h40.934c66.611 0 15.463 20.531 102.4 47.258l40.192-118.503-85.555-281.164L27.878 170.317c-3.584-216.448 265.933-298.215 443.034-298.215h102.4c120.038 0 450.688 143.77 450.688 259.917z"  horiz-adv-x="1024" />

    
    <glyph glyph-name="sale" unicode="&#58896;" d="M486.4 313.6l-44.8 25.6 19.2-44.8 25.6 19.2zM1004.8 876.8c-12.8 12.8-25.6 19.2-44.8 19.2H627.2C576 896 544 889.6 505.6 857.6 454.4 806.4 25.6 371.2 19.2 364.8c-12.8-12.8-19.2-25.6-19.2-44.8 0-19.2 6.4-32 19.2-44.8l384-384c12.8-12.8 25.6-19.2 44.8-19.2 19.2 0 32 6.4 44.8 19.2l486.4 486.4c38.4 38.4 44.8 76.8 44.8 128V832c0 19.2-6.4 32-19.2 44.8zM416 153.6c-6.4-19.2-12.8-38.4-32-51.2-25.6-32-51.2-38.4-89.6-38.4l6.4 44.8c32-6.4 51.2 0 64 12.8 6.4 6.4 12.8 12.8 12.8 19.2v12.8c-6.4 6.4-32 6.4-70.4 0-44.8-12.8-76.8-12.8-83.2 0-12.8 12.8-12.8 25.6-12.8 38.4 0 19.2 12.8 38.4 32 51.2 12.8 25.6 44.8 38.4 83.2 38.4l-6.4-44.8c-25.6 0-51.2 0-57.6-12.8-6.4-6.4-6.4-12.8-12.8-12.8 0-6.4 0-6.4 6.4-12.8s25.6-6.4 70.4 0c44.8 6.4 70.4 6.4 83.2-6.4 12.8-6.4 12.8-19.2 6.4-38.4z m147.2 121.6l-44.8 25.6-38.4-38.4 25.6-44.8-38.4-38.4-102.4 192 38.4 38.4 198.4-96-38.4-38.4z m57.6 57.6L473.6 480l38.4 44.8 128-128 76.8 76.8 19.2-25.6-115.2-115.2zM768 480L620.8 627.2l115.2 115.2 25.6-25.6-70.4-70.4 38.4-38.4 44.8 44.8 25.6-25.6-51.2-51.2 32-32 70.4 70.4 25.6-25.6L768 480z m160 243.2c-12.8-12.8-25.6-12.8-38.4-12.8-12.8 0-25.6 6.4-38.4 12.8-12.8 12.8-12.8 25.6-12.8 38.4 0 12.8 6.4 25.6 12.8 38.4 12.8 12.8 25.6 12.8 38.4 12.8 12.8 0 25.6-6.4 38.4-12.8 19.2-25.6 19.2-57.6 0-76.8z"  horiz-adv-x="1024" />

    
    <glyph glyph-name="xinpin" unicode="&#59188;" d="M701.671478 708.409693l-49.199508-21.215093-256.437508 64.056695c1.005464 8.904679 0.042145 18.158562-3.748916 26.948848-11.650138 27.017082-43.120564 39.44791-70.27813 27.737564-27.16158-11.710346-39.748948-43.14264-28.096802-70.157715 1.760064-4.086078 4.094105-7.726621 6.660949-11.112285L160.440769 475.035646l-49.201515-21.215092c-40.760432-17.576557-59.623421-64.700915-42.135169-105.260656l147.767104-342.694691c17.474204-40.517596 64.698908-59.169859 105.45934-41.593301L912.76476 218.867065c40.736349 17.564515 59.615394 64.722991 42.141189 105.244601l-147.76911 342.68867c-17.488252 40.557734-64.727005 59.177886-105.465361 41.609357m-385.670757 2.659161c14.182864-8.268488 31.93603-10.054641 48.218127-3.034454 11.716367 5.051404 20.466514 13.835668 25.981514 24.261589l237.66483-55.709939-442.825673-190.947875 130.961202 225.430679m94.421311-513.495151l-52.723649-22.734327-110.414412 69.65398 42.636897-98.882682-52.603235-22.682147-77.65354 180.088461 52.227941 22.521594 111.114826-70.246019-42.964025 99.635274 52.721643 22.73232 77.657554-180.086454m189.653415 81.779757l-152.605774-65.804718-77.655548 180.086454 149.894433 64.636694 16.575107-38.438433-93.837299-40.463409 12.342524-28.630641 87.043893 37.535321 15.840576-36.736569-87.043893-37.531307 15.31075-35.506331 96.550647 41.633441 17.584584-40.780502m224.820578 96.944002l-54.852986-23.653493-80.635816 99.691468 17.261471-127.015609-54.846964-23.651486-117.926293 162.724637 53.13306 22.908928 62.599675-92.582977-15.479331 112.900979 52.924341 22.820624 71.482279-88.581189-24.273631 108.937323 52.850085 22.79052 37.76411-197.289725m0 0z"  horiz-adv-x="1024" />

    
    <glyph glyph-name="lianxiwomen" unicode="&#59065;" d="M533.008 895.997c9.565-0.917 19.139-1.74 28.693-2.767 63.674-6.836 123.471-25.951 178.527-58.61 108.010-64.072 178.905-156.824 212.088-278.080 10.098-36.898 14.75-74.615 14.901-112.852 0.154-38.553 0.010-77.11 0.045-115.663 0.016-18.485-4.328-35.841-12.213-52.566-3.123-6.623-4.526-14.066-6.617-21.163-47.155-160.092-180.708-282.645-344.566-316.029-11.278-2.297-22.683-4.058-34.097-5.543-3.917-0.509-5.147-2.435-6.362-5.632-13.281-34.968-47.033-56.843-84.606-54.98-36.347 1.8-68.176 27.8-77.582 63.37-11.254 42.565 11.592 86.539 52.947 101.912 41.152 15.297 87.366-3.338 106.32-43.159 2.024-4.25 4.188-5.246 8.534-4.516 137.66 23.088 238.112 96.92 301.746 221.036 0.56 1.090 1.041 2.22 1.856 3.97-4.495-0.455-8.352-1-12.229-1.217-65.697-3.685-120.494 47.878-120.671 113.622-0.103 37.765-0.074 75.53-0.007 113.294 0.119 65.934 54.448 117.686 120.21 113.899 10.878-0.626 21.588-4.202 32.369-6.442 1.040-0.216 2.036-0.632 3.192-1-35.503 142.017-174.233 287.131-373.314 291.997-204.32 4.994-354.339-139.271-393.36-291.509 7.85 1.915 15.684 4.234 23.675 5.71 59.464 10.99 120.268-31.672 130.102-91.327 1.252-7.599 1.881-15.383 1.923-23.083 0.193-36.975 0.179-73.949 0.065-110.923-0.17-54.957-37.158-100.515-90.834-112.099-61.878-13.355-124.49 29.149-134.835 91.656-1.053 6.363-1.754 12.864-1.78 19.304-0.151 39.819-0.91 79.659 0.098 119.452 3.693 145.775 62.896 264.39 177.012 354.979 58.319 46.297 125.045 75.018 198.366 87.91 17.685 3.111 35.723 4.206 53.597 6.247 1.705 0.195 3.395 0.533 5.090 0.805 13.906-0.003 27.812-0.003 41.719-0.003zM227.708 383.525c0 18.798 0.042 37.598-0.010 56.396-0.087 32.458-25.175 57.898-56.988 57.858-31.584-0.040-56.69-25.445-56.758-57.606-0.078-37.44-0.062-74.88 0.042-112.318 0.013-4.389 0.405-8.875 1.376-13.144 6.422-28.213 33.012-47.413 61.008-44.266 29.497 3.317 51.145 27.165 51.31 56.685 0.104 18.797 0.019 37.595 0.020 56.395zM796.589 383.999c0-18.64-0.091-37.282 0.066-55.922 0.038-4.544 0.427-9.19 1.453-13.605 6.558-28.231 33.311-47.372 61.174-44.001 29.628 3.584 50.979 27.262 51.057 56.909 0.1 37.755 0.074 75.511-0.043 113.266-0.013 4.381-0.509 8.861-1.515 13.12-6.621 28.022-33.061 46.955-60.872 43.8-29.522-3.349-51.131-27.161-51.297-56.697-0.11-18.957-0.021-37.914-0.023-56.87z"  horiz-adv-x="1024" />

    
    <glyph glyph-name="juzhenpailie" unicode="&#58905;" d="M406.641778 426.837333h-344.177778A62.520889 62.520889 0 0 0 0 489.244444V833.422222A62.577778 62.577778 0 0 0 62.520889 896h344.177778a62.577778 62.577778 0 0 0 62.464-62.577778v-344.177778c0-34.417778-27.989333-62.407111-62.520889-62.407111z m0-554.496h-344.177778A62.520889 62.520889 0 0 0 0-65.137778v344.177778c0 34.474667 27.989333 62.464 62.520889 62.464h344.177778c34.474667 0 62.464-27.989333 62.464-62.520889v-344.177778c0-34.474667-27.989333-62.464-62.520889-62.464z m554.496 554.496h-344.177778A62.520889 62.520889 0 0 0 554.496 489.244444V833.422222A62.577778 62.577778 0 0 0 617.016889 896h344.177778a62.577778 62.577778 0 0 0 62.464-62.577778v-344.177778c0-34.417778-27.989333-62.407111-62.520889-62.407111z m0-554.496h-344.177778a62.577778 62.577778 0 0 0-62.520889 62.520889v344.177778a62.577778 62.577778 0 0 0 62.577778 62.464h344.177778c34.474667 0 62.464-27.989333 62.464-62.520889v-344.177778c0-34.474667-27.989333-62.464-62.520889-62.464z"  horiz-adv-x="1024" />

    
    <glyph glyph-name="saoyisao" unicode="&#58881;" d="M40.96 573.44V755.712C40.96 815.616 90.112 864.256 150.528 864.256h182.784c19.968 1.024 38.4-13.824 38.4-34.304s-13.824-37.888-34.304-37.888H151.04c-19.968 0-36.864-16.896-37.376-36.864v-182.272c0-19.968-16.896-36.352-36.352-36.352C57.344 537.088 40.96 553.472 40.96 573.44zM946.176 537.088c-19.456 0-36.352 16.384-36.352 36.352V755.712c0 19.968-16.896 36.864-37.376 36.864H686.08c-19.968 0-34.304 17.408-34.304 37.888 0 19.968 18.432 35.328 38.4 34.304h182.784c60.416 0 109.568-48.64 109.568-109.056V573.44c0-19.968-16.384-36.352-36.352-36.352zM77.312 257.024c19.456 0 36.352-16.384 36.352-36.352v-182.272c0-19.968 16.896-36.864 37.376-36.864h186.368c19.968 0 34.304-17.408 34.304-37.888 0-19.968-18.432-35.328-38.4-34.304H150.528c-60.416 0-109.568 48.64-109.568 109.056v182.272c0 19.456 16.384 36.352 36.352 36.352zM982.528 220.67200000000003v-182.272c0-60.416-49.152-109.056-109.568-109.056h-182.784c-19.968-1.024-38.4 13.824-38.4 34.304s13.824 37.888 34.304 37.888h186.368c19.968 0 36.864 16.896 37.376 36.864v182.272c0 19.968 16.896 36.352 36.352 36.352s36.352-16.896 36.352-36.352zM983.04 396.8c0 19.968-16.384 35.84-35.84 35.84H76.8c-19.968 0-35.84-16.384-35.84-35.84s15.872-35.84 35.84-35.84h870.4c19.456 0 35.84 16.384 35.84 35.84z"  horiz-adv-x="1024" />

    
    <glyph glyph-name="zhengque" unicode="&#58918;" d="M903.55 648.925c-27.692 27.692-72.588 27.692-100.28 0L423.971 269.626l-203.808 203.81c-27.692 27.69-72.588 27.69-100.28 0-27.692-27.692-27.692-72.59 0-100.28l253.809-253.809c13.882-13.882 32.085-20.791 50.28-20.755 18.195-0.037 36.4 6.873 50.282 20.755L903.55 548.645c27.69 27.692 27.69 72.59 0 100.28z"  horiz-adv-x="1024" />

    
    <glyph glyph-name="baobao" unicode="&#58981;" d="M1024-8.192q0-12.288-11.264-32.768t-34.304-39.424-56.832-33.28T843.776-128H181.248q-45.056 0-78.848 14.336t-56.832 33.28-34.304 39.424T0-8.192l90.112 482.304q0 25.6 17.92 43.008t42.496 17.408q7.168-2.048 16.384-5.12 8.192-2.048 19.456-5.12l24.576-7.168v79.872q0 61.44 23.552 116.224t64.512 95.232 95.744 64T512 896t117.248-23.552 95.744-64 64.512-95.232 23.552-116.224v-79.872l24.576 7.168q11.264 3.072 19.456 5.12 9.216 3.072 16.384 5.12 25.6 0 43.008-17.408t17.408-43.008zM240.64 323.584q25.6 0 43.008 17.408T301.056 384q0 17.408-8.192 30.72t-21.504 21.504V384h-60.416v52.224Q181.248 419.84 181.248 384q0-25.6 17.408-43.008t41.984-17.408z m30.72 179.2Q321.536 491.52 384 482.816t128-8.704 128 8.704 113.664 19.968v84.992q0 51.2-18.944 96.256t-51.712 78.848-76.8 53.248T512 835.584t-93.696-19.456-76.288-53.248-51.712-78.848-18.944-96.256v-84.992z m512-179.2q25.6 0 43.008 17.408T843.776 384q0 17.408-8.192 30.72t-22.528 21.504V384h-59.392v52.224q-14.336-8.192-22.528-21.504T722.944 384q0-25.6 17.92-43.008t42.496-17.408z"  horiz-adv-x="1024" />

    
    <glyph glyph-name="aixin2" unicode="&#58890;" d="M1013.8 544.6c0 169.4-131.3 307.2-292.4 307.2-79.6 0-154.9-34.8-209.3-94.1C457.5 817 382.2 851.8 302.7 851.8c-161.2 0-292.4-137.7-292.4-307.2 0-5.7 0.5-10.8 1-14.9-0.1-1.4-0.2-2.7-0.2-4.2 0-30 7.2-62.9 21.3-98 0.5-1.3 0.9-2.5 1.4-3.6 89.1-216.4 432.1-465.3 446.7-476.8 9.1-7.1 19.8-10.5 30.7-10.5 11 0 21.8 3.6 31 10.8 12.5 9.9 305 223 421.2 424.8 4.4 6.8 7.7 13.4 10.7 19.1 0.9 1.8 1.7 3.6 2.7 5.4l0.4 0.8c0.4 0.7 0.8 1.4 1.3 2 7 13.7 12.5 26.5 16.9 38.9 12 32 18 60.4 18 87 0 2-0.1 3.9-0.2 5.4 0.2 3.5 0.6 8.2 0.6 13.8z"  horiz-adv-x="1024" />

    
    <glyph glyph-name="sousuo" unicode="&#58888;" d="M946.200588 7.169538999999986L728.52801 224.84211700000003c116.498294 145.980769 107.446128 359.128287-27.589358 494.323409-145.311527 145.242965-380.707768 145.242965-525.951757 0-145.151891-145.220453-145.151891-380.753817 0-525.906731 136.376017-136.351458 352.129896-144.256498 498.214019-24.538883l217.274512-217.286792c15.398712-15.377222 40.346917-15.377222 55.724139 0 15.399735 15.400758 15.399735 40.34794 0.001023 55.736419z m-714.919573 242.451938c-114.082268 114.160039-114.082268 299.05919 0 413.174204 114.181529 114.112967 299.205523 114.112967 413.287791 0 114.079198-114.115014 114.079198-299.014164 0-413.174204-114.082268-114.127294-299.106262-114.127294-413.287791 0z"  horiz-adv-x="1024" />

    
    <glyph glyph-name="dianzan" unicode="&#58893;" d="M924.8 464c-25.6 28.8-64 28.8-76.8 28.8h-150.4c-41.6 0-60.8 3.2-70.4 6.4 51.2 80 41.6 198.4 6.4 262.4-19.2 35.2-44.8 51.2-73.6 51.2h-3.2c-12.8 3.2-41.6 3.2-60.8-16-12.8-12.8-19.2-32-16-54.4 12.8-160-153.6-246.4-182.4-262.4-6.4 6.4-9.6 6.4-19.2 6.4h-172.8c-12.8 0-25.6-12.8-25.6-25.6v-483.2c0-12.8 12.8-25.6 25.6-25.6h176c6.4 0 12.8 3.2 19.2 6.4 3.2-3.2 3.2-6.4 6.4-6.4 0 0 313.6 3.2 419.2 3.2s147.2 176 179.2 316.8c6.4 32 12.8 60.8 22.4 86.4 19.2 44.8 16 80-3.2 105.6z m-665.6-460.8h-121.6v435.2h121.6v-435.2z m624 364.8c-6.4-25.6-12.8-54.4-22.4-89.6-25.6-108.8-64-278.4-128-278.4-102.4 0-396.8-3.2-419.2-3.2v428.8c3.2 0 6.4 0 9.6 3.2 9.6 3.2 236.8 105.6 217.6 316.8 0 9.6 3.2 12.8 0 12.8 3.2 3.2 6.4 3.2 19.2 3.2h6.4c6.4 0 19.2-9.6 25.6-25.6 28.8-54.4 32-153.6-9.6-214.4-12.8-22.4-9.6-38.4-6.4-48 12.8-25.6 51.2-35.2 121.6-35.2h153.6c6.4 0 25.6 0 32-9.6 9.6-6.4 6.4-28.8 0-60.8z"  horiz-adv-x="1024" />

    
    <glyph glyph-name="yinhangqia" unicode="&#58983;" d="M921.6 766.2933333333333h-819.2c-62.80533333333334-2.1845333333333334-112.50346666666665-53.52106666666667-112.50346666666665-116.32639999999999V119.12533333333329c0-62.80533333333334 49.69813333333333-114.14186666666666 111.95733333333332-116.32639999999999h819.2c62.80533333333334 2.1845333333333334 112.50346666666665 53.52106666666667 112.50346666666665 116.87253333333332V646.144v3.8229333333333333c0 62.2592-49.69813333333333 113.59573333333333-111.95733333333332 116.32639999999999z m-874.9056-120.69546666666666v3.8229333333333333c0 32.22186666666666 24.576 57.89013333333333 56.25173333333333 60.6208h819.2c31.1296-2.7306666666666666 55.7056-28.945066666666666 55.7056-60.6208v-58.43626666666666h-930.6111999999999v54.61333333333334z m929.5189333333333-522.1034666666667v-3.8229333333333333c0-31.675733333333334-24.576-57.89013333333333-55.7056-60.6208H102.39999999999998c-31.675733333333334 2.1845333333333334-56.25173333333333 28.398933333333332-56.25173333333333 60.6208v345.7024h929.5189333333333v-341.87946666666664zM365.0901333333333 195.03786666666656h-219.5456c-15.291733333333333 0-27.8528 12.561066666666667-27.8528 27.8528s12.561066666666667 27.8528 27.8528 27.8528h219.5456c15.291733333333333 0 27.8528-12.561066666666667 27.8528-27.8528s-12.561066666666667-27.8528-27.8528-27.8528z"  horiz-adv-x="1024" />

    
    <glyph glyph-name="close" unicode="&#58898;" d="M509.953388 832.756607c-246.709915 0-446.708971-200.00008-446.708971-446.708971 0-246.711961 200.00008-446.708971 446.708971-446.708971 246.711961 0 446.708971 199.998033 446.708971 446.708971C956.662359 632.756527 756.664326 832.756607 509.953388 832.756607zM735.3683 225.549222c17.933441-17.933441 17.933441-46.984081 0-64.917522-8.965186-8.965186-20.712741-13.44829-32.456203-13.44829-11.746532 0-23.493064 4.483104-32.459273 13.44829L509.953388 321.13113699999997 349.455997 160.63170000000002c-8.968256-8.965186-20.712741-13.44829-32.459273-13.44829s-23.493064 4.483104-32.459273 13.44829c-17.933441 17.933441-17.933441 46.984081 0 64.917522l160.499437 160.497391L284.537452 546.547073c-17.933441 17.933441-17.933441 46.984081 0 64.917522 17.933441 17.931395 46.984081 17.931395 64.917522 0l160.497391-160.499437 160.499437 160.499437c17.931395 17.931395 46.984081 17.931395 64.915475 0 17.933441-17.933441 17.933441-46.984081 0-64.917522L574.87091 386.046612 735.3683 225.549222z"  horiz-adv-x="1024" />

    
    <glyph glyph-name="gouwuche" unicode="&#58886;" d="M234.85217391-32.79871175999995a2.19130435 2.19130435 0 1 1 140.24347826 0 2.19130435 2.19130435 0 1 1-140.24347826 0ZM725.70434783-32.79871175999995a2.19130435 2.19130435 0 1 1 140.24347826 0 2.19130435 2.19130435 0 1 1-140.24347826 0ZM922.71304348 120.80128823999996l-560.97391305 0c-30.05217391 0-60.10434783 26.71304348-66.78260869 56.76521739l-100.17391304 591.02608696c-10.0173913 56.76521739-63.44347826 100.17391304-120.20869566 100.17391305l-23.37391304 0c-13.35652174 0-26.71304348-13.35652174-26.71304348-26.71304348 0-13.35652174 13.35652174-26.71304348 26.71304348-26.71304348l23.37391304 0c30.05217391 0 60.10434783-26.71304348 66.7826087-56.76521739l100.17391304-591.02608696c10.0173913-56.76521739 63.44347826-100.17391304 120.20869565-100.17391303l560.97391305 0c13.35652174 0 26.71304348 13.35652174 26.71304348 26.71304346C949.42608696 107.44476651000002 939.40869565 120.80128823999996 922.71304348 120.80128823999996zM896 731.86215782l-597.70434783 0c-13.35652174 0-26.71304348-13.35652174-26.71304347-26.71304349 0-13.35652174 13.35652174-26.71304348 26.71304347-26.71304348l597.70434783 0c26.71304348 0 40.06956522-16.69565217 33.39130435-43.40869564l-73.46086957-293.84347827c-6.67826087-33.39130435-43.40869565-60.10434783-76.8-63.44347825l-414.05217391-30.05217393c-13.35652174 0-26.71304348-13.35652174-23.37391304-30.05217391 0-13.35652174 13.35652174-26.71304348 30.05217391-23.37391304l414.05217391 30.05217391c56.76521739 3.33913043 110.19130435 50.08695652 123.54782609 103.51304348l73.46086956 293.84347826C996.17391304 678.43607085 956.10434783 731.86215782 896 731.86215782z"  horiz-adv-x="1024" />

    
    <glyph glyph-name="right" unicode="&#58897;" d="M354.04794157 383.65492130999996l409.82303559 409.83004937c17.22307416 17.21185209 17.22307416 45.14919896-1e-8 62.36245382-17.21185209 17.22307416-45.14919896 17.22307416-62.3624538 0l-441.00917214-441.01197767c-17.22728244-17.21185208-17.22728243-45.14919896-1e-8-62.36245382l441.0105749-441.0105749c8.60873156-8.61293983 19.89532992-12.92081252 31.18052554-12.92081251s22.57319672 4.30787268 31.18052551 12.92081251c17.22728244 17.21185208 17.22728243 45.14919896 0 62.36245381l-409.8258411 409.83145214z"  horiz-adv-x="1024" />

    
    <glyph glyph-name="kuaidi" unicode="&#59255;" d="M1676.588071-127.991972c-39.963775 0-79.084653 13.898175-110.155459 39.134525-30.633302 24.88153-52.201041 59.620947-60.728755 97.819454l-1.478683 6.622766h-79.710003s-0.694387 0.048968-0.972945 0.057798l-0.262502 0.008028-0.262502-0.008028c-0.29381-0.008028-0.586817-0.027294-0.879022-0.048968l-231.519047-0.009633-1.47788-6.622766c-8.528517-38.19931-30.09465-72.937924-60.726347-97.819454-31.070003-25.23635-70.190881-39.134525-110.157867-39.134525-39.962973 0-79.083048 13.898175-110.154657 39.134525-30.633302 24.88153-52.201041 59.620947-60.72715 97.819454l-1.479485 6.622766H687.870154c-62.805494 0-113.901135 51.09243-113.901135 113.894713 0 18.123098 14.197604 32.3199 32.320702 32.3199 18.125506 0 32.322308-14.196802 32.322308-32.3199 0-27.622151 21.636776-49.25973 49.258125-49.25973h158.322634l1.52444 6.546503c8.811088 37.831646 30.467131 72.191358 60.978413 96.751785 30.963236 24.924879 69.873791 38.652066 109.560615 38.652066 39.690034 0 78.599787-13.72799 109.563023-38.652066 30.511283-24.558821 52.16572-58.920138 60.975202-96.751785l1.523638-6.546503h199.42713V782.098062c0 27.622151-21.635974 49.258928-49.255716 49.258928h-652.619379c-27.621348 0-49.258125-21.636776-49.258125-49.258928 0-18.123098-14.197604-32.320702-32.322308-32.320702H510.030028c-18.123098 0-32.320702 14.197604-32.320702 32.320702 0 18.125506 14.197604 32.323111 32.320702 32.323111h67.938338l2.022954 5.5856C596.448692 865.460621 639.472587 896 687.053747 896h652.620182c62.804691 0 113.901135-51.095641 113.901135-113.901938v-130.828924h262.986416c24.207212 0 47.455127-12.311119 60.670957-32.127238l156.629614-234.136845c8.233101-12.718921 12.441969-26.541637 12.441969-40.975253v-255.34254c0-40.308962-32.797542-73.10249-73.11132-73.102489h-24.240928l-1.478683-6.622766c-8.52932-38.19931-30.093848-72.937924-60.725544-97.819454-31.071609-25.235547-70.192487-39.134525-110.159474-39.134525z m0 285.522282c-60.896532 0-110.438833-49.543907-110.438833-110.440439 0-60.900546 49.542302-110.446861 110.438833-110.446861 55.383982 0 102.465024 41.392687 109.51245 96.282973l0.256883 1.999674-0.672713 1.901737a33.123462 33.123462 0 0 0-1.920201 11.078884c0 3.630881 0.604478 7.24651 1.796576 10.744133l0.651841 1.912173-0.280163 1.998871c-7.609357 54.142916-54.617347 94.968855-109.344673 94.968855z m-658.331012 0c-60.895729 0-110.438833-49.543907-110.438834-110.440439 0-60.900546 49.543104-110.446861 110.438834-110.446861 56.340069 0 103.516638 42.189025 109.73963 98.134939l0.192662 1.73075-0.507344 1.668937a33.418877 33.418877 0 0 0-1.427306 9.728642c0 3.129156 0.445532 6.255102 1.322144 9.292744l0.480051 1.660909-0.208718 1.717905c-6.751207 55.272399-53.865161 96.952474-109.591119 96.952474z m658.331012 64.640603c39.688429 0 78.599787-13.72799 109.563023-38.652067 30.51048-24.558821 52.16572-58.920138 60.9744-96.751784l1.52444-6.546504h33.00947V346.601844l-63.429238 94.813923h-233.010574c-18.124704 0-32.320702 14.197604-32.320702 32.320702 0 18.123901 14.195999 32.322308 32.320702 32.322308h189.76271l-53.898878 80.568153h-264.250762v-506.407175h47.690336l1.52444 6.546504c8.811088 37.831646 30.466328 72.191358 60.978413 96.751784 30.965644 24.925682 69.875397 38.652869 109.56222 38.65287zM549.187833 604.574224c-18.125506 0-32.322308 14.197604-32.322308 32.321505s14.197604 32.321505 32.322308 32.321505h187.626566c18.123098 0 32.320702-14.197604 32.320703-32.321505s-14.197604-32.321505-32.320703-32.321505H549.187833zM459.453772 278.265337c-18.125506 0-32.322308 14.196802-32.322308 32.3199 0 18.124704 14.197604 32.323913 32.322308 32.323913H647.080339c18.123901 0 32.321505-14.19921 32.321505-32.323913 0-18.123098-14.197604-32.3199-32.321505-32.3199H459.453772zM361.559661 457.729445c-18.123098 0-32.320702 14.197604-32.320702 32.321505s14.197604 32.321505 32.320702 32.321505h554.727677c18.123901 0 32.321505-14.197604 32.321505-32.321505s-14.197604-32.321505-32.321505-32.321505H361.559661z"  horiz-adv-x="2275" />

    
    <glyph glyph-name="star-half" unicode="&#58892;" d="M453.09090869 780.81818174l-78.13636348-169.15909043a95.31818174 95.31818174 0 0 0-65.0454539-49.90909131l-180-25.97727305a63 63 0 0 1-34.77272783-106.36363564l134.59090957-138.88636436a83.65909131 83.65909131 0 0 0 23.93181826-73.84090869l-32.72727305-195.13636347a61.36363652 61.36363652 0 0 1 25.97727305-61.36363653 56.86363653 56.86363653 0 0 1 36.81818174-10.84090957 49.90909131 49.90909131 0 0 1 30.27272695 8.59090957L471.09090869 43.22727305000001a92.04545479 92.04545479 0 0 0 38.25 9.61363564V817.63636348a64.63636348 64.63636348 0 0 1-56.25-36.81818174zM928.25 429.40909131a61.36363652 61.36363652 0 0 1 15.13636347 63 64.02272695 64.02272695 0 0 1-49.90909042 43.36363564l-180 28.22727305a81.81818174 81.81818174 0 0 0-65.04545479 49.90909131l-78.13636347 169.15909043a81.81818174 81.81818174 0 0 1-61.36363653 34.77272695v-765a91.84090869 91.84090869 0 0 0 44.18181827-9.61363564l156.27272695-84.68181826a70.56818174 70.56818174 0 0 1 30.27272783-8.59090958 73.22727305 73.22727305 0 0 1 36.81818174 10.84090958 61.36363652 61.36363652 0 0 1 25.97727216 61.36363652l-32.52272695 195.34090869a85.70454521 85.70454521 0 0 0 23.93181827 73.84090869z"  horiz-adv-x="1024" />

    
    <glyph glyph-name="bianji1" unicode="&#58901;" d="M39.822222 258.844444l341.333334-347.022222H34.133333zM898.844444 429.511111l22.755556 22.755556c39.822222 39.822222 39.822222 102.4 0 142.222222l-199.111111 199.111111c-39.822222 45.511111-102.4 45.511111-142.222222 5.688889l-22.755556-22.755556 341.333333-347.022222zM82.659556 301.795556L517.12 736.256l68.380444-68.380444-434.460444-434.460445zM355.953778 29.240889l434.403555 434.460444 72.419556-72.419555-434.460445-434.403556zM195.527111 190.577778l434.460445 434.460444 120.661333-120.718222-434.460445-434.403556z"  horiz-adv-x="1024" />

    
    <glyph glyph-name="bianji" unicode="&#58909;" d="M153.14 50.086c204.062 25.073 214.905 35.916 222.088 43.145L887.897 605.9c22.145 22.099 22.556 57.695 0.916 79.337L760.244 813.85c-21.824 21.595-57.375 21.184-79.382-0.961l-512.67-512.668c-7.092-7.046-17.798-17.798-46.302-218.29a28.121 28.121 0 0 1 7.732-23.608 28.109 28.109 0 0 1 20.085-8.419 28.397 28.397 0 0 1 3.433 0.182zM720.484 774.09l127.699-128.476-64.858-64.853-128.018 128.017 65.177 65.312zM615.633 669.024L743.607 541.05 368.159 165.635 240.57 293.184l375.063 375.84z m-408.81-421.61l115.252-115.216c-29.158-6.003-84.458-14.396-139.148-21.626 8.15 53.912 17.468 108.319 23.896 136.842z m669.865-252.827H173.363c-15.51 0-28.092-12.582-28.092-28.092s12.582-28.094 28.092-28.094h703.324c15.51 0 28.092 12.582 28.092 28.094s-12.581 28.092-28.091 28.092z"  horiz-adv-x="1024" />

    
    <glyph glyph-name="dingdan" unicode="&#58934;" d="M846.027744-121.647598H176.719233c-48.856235 0-88.608219 39.192097-88.608219 87.391073V745.690546c0 48.174633 39.751984 87.36673 88.608219 87.36673h160.273768v12.633974c0 27.020638 22.249426 48.97795 49.635208 48.97795h249.466217c27.385782 0 49.659551-21.957311 49.659551-48.97795v-12.633974h160.273767c48.856235 0 88.583876-39.192097 88.583876-87.36673v-779.947071c0-48.198976-39.727641-87.391073-88.583876-87.391073zM642.399241 845.69125a6.25613 6.25613 0 0 1-6.304815 6.207444H386.628209a6.25613 6.25613 0 0 1-6.280473-6.207444v-71.276062c0-3.408008 2.823778-6.207444 6.280473-6.207444h249.466217a6.280473 6.280473 0 0 1 6.304815 6.207444V845.69125z m248.857644-100.000704c0 24.586346-20.301993 44.620567-45.229141 44.620567h-160.273767v-15.895925c0-26.996295-22.273769-48.953607-49.659551-48.953606H386.628209c-27.385782 0-49.635208 21.957311-49.635208 48.953606v15.895925H176.719233c-24.95149 0-45.22914-20.034221-45.22914-44.620567v-779.947071c0-24.586346 20.27765-44.620567 45.22914-44.620567h669.308511c24.927147 0 45.22914 20.034221 45.229141 44.620567V745.690546z m-150.1958-666.338675H281.685893a21.519139 21.519139 0 0 0-21.68954 21.397424c0 11.806315 9.688481 21.373081 21.68954 21.373081h459.375192c11.976715 0 21.689539-9.566766 21.689539-21.373081a21.543482 21.543482 0 0 0-21.689539-21.397424z m0 209.982004H281.685893a21.519139 21.519139 0 0 0-21.68954 21.397424c0 11.806315 9.688481 21.373081 21.68954 21.373082h459.375192c11.976715 0 21.689539-9.566766 21.689539-21.373082a21.543482 21.543482 0 0 0-21.689539-21.397424z m-152.11889 209.982005H281.685893a21.519139 21.519139 0 0 0-21.68954 21.397424c0 11.806315 9.688481 21.373081 21.68954 21.373082h307.256302c11.976715 0 21.689539-9.566766 21.689539-21.373082a21.543482 21.543482 0 0 0-21.689539-21.397424z"  horiz-adv-x="1024" />

    
    <glyph glyph-name="xingxing" unicode="&#58982;" d="M957.968 489.25c-4.93 15.282-18.025 26.496-33.76 28.786L665.263 556.14l-115.86 237.334c-7.043 14.393-21.539 23.565-37.404 23.565-15.867 0-30.361-9.173-37.404-23.565L358.733 556.14 99.788 518.036c-15.734-2.29-28.844-13.373-33.758-28.786-4.9-15.298-0.76-32.097 10.586-43.312l187.402-184.733-44.082-260.914c-2.654-15.793 3.775-31.834 16.623-41.27 12.848-9.435 29.852-10.703 43.953-3.193l231.602 123.194 231.619-123.194c6.051-3.179 12.715-4.842 19.395-4.842a41.37 41.37 0 0 1 24.557 8.035c12.848 9.436 19.264 25.477 16.625 41.27l-44.201 260.914 187.402 184.733c11.215 11.215 15.355 28.014 10.457 43.312z"  horiz-adv-x="1024" />

    
    <glyph glyph-name="mcafeesecure" unicode="&#58889;" d="M1802.683482 511.493271a120.452269 120.452269 0 0 0-51.137454-10.780805c-36.853017 0-68.562183 25.117148-68.562183 63.698623 0 41.846341 26.990942 66.958298 63.885484 66.958298a103.053492 103.053492 0 0 0 53.971502-12.851841v67.217826a159.45418 159.45418 0 0 1-65.671038 12.457358c-83.344914 0-145.470795-48.464312-145.470795-132.307521C1589.71457 482.49358 1651.845641 434.039649 1735.206127 434.039649a237.546241 237.546241 0 0 1 67.477355 9.991839v67.477355-0.015572z m693.70873 78.595546c0 29.067168-12.119971 50.82602-41.669862 50.82602-26.710651 0-37.211166-21.738089-38.851384-50.82602h80.521246z m-78.678595-49.429757c5.299568-28.729781 24.639616-46.087033 66.79739-46.087033a192.559608 192.559608 0 0 1 76.098884 15.820844v-60.350708A246.676446 246.676446 0 0 0 2469.141742 434.039649c-82.337944 0-142.21112 48.947035-142.21112 132.291949s50.146056 131.84037 127.687917 131.84037c92.39207 0 124.158333-66.397717 124.158333-141.520775v-15.997324h-161.115161l0.051906 0.005191z m354.61426 49.429757c0 29.067168-12.083637 50.82602-41.633527 50.82602-26.715842 0-37.205975-21.738089-38.846194-50.82602h80.479721z m-78.663023-49.429757c5.304758-28.729781 24.644806-46.087033 66.787009-46.087033a192.076885 192.076885 0 0 1 76.078122 15.820844v-60.350708A246.292344 246.292344 0 0 0 2745.118932 434.039649c-82.322373 0-142.21112 48.947035-142.21112 132.291949s50.203152 131.84037 127.765775 131.84037c92.360927 0 124.153142-66.397717 124.153142-141.520775v-15.997324l-161.161875 0.005191zM1577.438882 439.842702l-49.310375 367.492054h-113.787582L1359.98013 559.942012l-50.348488 247.387553h-114.342973L1141.924463 439.842702h88.950725l29.394174 230.170447 50.042244-230.170447h96.092944L1461.144256 670.013149l27.914863-230.170447h88.379763z m693.25196 269.208692c0 26.850797 7.256411 43.870662 32.259366 46.964239a95.210547 95.210547 0 0 0 28.278202-1.308023v64.363015a212.771671 212.771671 0 0 1-40.543509 4.277026c-72.008719 0-108.731971-32.66423-108.731971-114.291067v-16.962769H2138.513085V625.727242h43.434655v-185.889731h88.737911V625.727242h53.691212V692.088625h-53.686021v16.962769z m-318.228395-120.670273h72.994926l-35.259513 147.453592-37.735413-147.453592zM2159.275348 439.837511h-98.298934l-18.639321 77.962297h-107.963768l-19.973297-77.962297h-93.995955l108.342679 367.492054H2052.349694l106.925654-367.492054zM1349.079942 118.972309a85.758527 85.758527 0 0 1-25.646586 30.551669 252.427593 252.427593 0 0 1-55.019996 29.139837 311.771331 311.771331 0 0 0-46.196035 22.158525 57.116985 57.116985 0 0 0-18.421318 17.839974 43.803184 43.803184 0 0 0-5.59543 22.734678 38.685286 38.685286 0 0 0 13.988575 31.143395c9.343018 7.858517 23.02535 11.782584 41.031422 11.782584 23.783172 0 50.83121-6.379205 81.154495-19.122044l17.720592 45.469355a239.00479 239.00479 0 0 1-97.468444 21.452609c-34.050111 0-61.165627-8.159569-81.37769-24.483899-20.222444-16.324329-30.323285-38.706049-30.323285-67.155539a91.229383 91.229383 0 0 1 19.132426-58.284863c12.737648-16.168612 34.657407-30.556861 65.754086-43.149173 30.157187-12.10959 50.057816-22.599723 59.691506-31.4704a42.422494 42.422494 0 0 0 14.455726-32.420274 41.083328 41.083328 0 0 0-15.742986-33.811345c-10.490133-8.393145-26.772938-12.597503-48.848414-12.592313a209.532758 209.532758 0 0 0-48.848414 6.296157 257.208104 257.208104 0 0 0-49.549141 17.25344V-0.410704c24.566948-11.969445 56.125587-17.954167 94.665538-17.954166s68.774996 8.631911 90.705136 25.885351c21.92495 17.253441 32.882234 41.036613 32.882234 71.349517a91.9353 91.9353 0 0 1-8.143997 40.102311z m266.98713-85.348473h-137.108794v107.034656h128.482074v46.621662h-128.482074v92.807315h137.108794v47.119956H1423.253126v-340.900786h192.824327v47.322388l-0.010381-0.005191z m259.175328 244.480837a299.474881 299.474881 0 0 0 36.489678-14.341533l20.056346 46.393276a214.951708 214.951708 0 0 1-96.554904 21.92495 170.390702 170.390702 0 0 1-86.51116-21.219033 138.992969 138.992969 0 0 1-56.312447-61.098149 209.615807 209.615807 0 0 1-19.469812-93.040891c0-56.276114 13.365707-99.534289 40.107501-129.764143 26.736604-30.240236 65.058551-45.360354 114.95546-45.355164a255.946797 255.946797 0 0 1 90.938711 15.156452v47.805111a497.375581 497.375581 0 0 0-42.20449-11.076668 200.397362 200.397362 0 0 0-41.970914-4.31336c-33.416862 0-58.959636 10.718518-76.602369 32.181508-17.642733 21.457799-26.466695 53.094297-26.477076 94.899113 0 39.941403 9.17692 71.261277 27.515189 93.954431 18.333078 22.687963 43.522894 34.03973 75.548684 34.050111a131.393981 131.393981 0 0 0 40.481222-6.135249l0.010381-0.020762z m328.671814 49.113133v-215.221618c0-55.186095-26.279834-82.779142-78.823932-82.773952-27.048038 0-47.094003 6.685449-60.158657 20.051156-13.054273 13.365707-19.578814 34.117589-19.578814 62.255645V327.217806h-55.96987v-219.664742c0-39.1732 11.735869-69.953254 35.207608-92.334974 23.466548-22.38691 56.338401-33.588151 98.620749-33.58296 25.298817-0.674774 50.410774 4.557317 73.337503 15.275835a108.000101 108.000101 0 0 1 46.865618 43.595561 130.82821 130.82821 0 0 1 16.204946 66.101855v220.599044l-55.705151 0.010381z m198.658522-47.099193h36.858208c25.335151 0 44.301479-4.199168 56.893791-12.592313s18.888469-22.236384 18.888469-41.524526c0-18.966327-5.829005-33.271526-17.481826-42.905216-11.658011-9.63369-30.468621-14.455726-56.431831-14.455726h-38.706048v111.477781h-0.020763z m55.025188-157.62191l81.626837-136.169302h63.433904l-96.310948 150.858603c44.150952 18.037216 66.226428 48.267071 66.226429 90.710327 0 33.255955-10.567992 58.123955-31.709167 74.614382-21.141174 16.485237-53.711974 24.722665-97.696828 24.717474h-96.321328v-340.900786h55.720723v136.169302h55.030378z m387.304444-88.852105h-137.108794v107.034656h128.482073v46.621662h-128.482073v92.812506h137.108794v47.094003h-192.839899v-340.900786h192.839899v47.337959z m70.472311 283.119409h16.090754v10.46418h-44.76863v-10.46418h16.090754V267.941545h12.57155v48.822462h0.015572zM2977.204698 267.941545l15.286216 46.429611h0.378911c-0.218004-4.593651-0.399674-9.192492-0.5502-13.786143-0.041525-1.728458-0.062287-3.259675-0.062286-4.583269V267.941545h11.720297v59.286642h-17.128867l-14.881352-45.334401h-0.243957l-14.014527 45.334401h-17.128867V267.941545h11.232384v27.577476c0 3.161055-0.254338 9.477973-0.768203 18.935184h0.363339l14.274056-46.51266h11.523056zM495.657504-78.409335C95.309168 109.90439 45.152731 514.617992 44.929537 707.374841c-0.098621 40.476032 2.180038 70.840841 3.841019 87.642703C87.15998 804.230798 289.566091 851.298848 495.657504 851.298848c206.122556 0 408.596145-47.06805 446.944044-56.281304 1.660981-16.801861 3.94483-47.166671 3.809875-87.642703-0.176479-192.756849-50.36925-597.470451-450.753919-785.784176m487.700366 909.200258C963.576624 836.614737 730.447555 895.974047 495.657504 895.974047 260.92974 895.974047 27.805861 836.619928 8.019424 830.790923 7.085122 823.627942 0 781.387118 0 707.374841c0-199.603206 50.151246-632.927205 495.657504-835.348888 445.599688 202.421683 495.719791 635.740492 495.71979 835.348888 0 74.012277-7.085122 116.253101-8.019424 123.416082M727.738079 279.376362H631.536134l-32.181508 222.649317-34.439404-169.316254-54.262174 170.769613 58.601487 174.730014h100.769644l57.7139-398.83269z m-298.509436 398.822309l125.912744-398.817119h-112.220031L394.275374 502.025679l-34.024159-222.649317h-96.648334l63.324902 398.817118h102.30086v0.005191z m432.618083 74.271805a3314.139892 3314.139892 0 0 0-366.199603-18.815801 3312.297241 3312.297241 0 0 0-366.100983 18.815801c-1.598694-25.179434-2.38766-50.395203-2.361708-75.616162 0-481.113539 309.061856-635.553632 368.462691-661.32479 59.416406 25.771159 368.55093 180.211252 368.55093 661.32479 0 24.359325-0.726679 49.554331-2.351327 75.616162"  horiz-adv-x="3004" />

    
    <glyph glyph-name="youxiang" unicode="&#58894;" d="M985.504217 660.038484v-531.156669c0-5.351704-0.608148-10.581779-1.702815-15.811854v-0.12163c0-0.243259-0.12163-0.608148-0.12163-0.851407-7.541038-36.124005-39.529635-62.03112-76.383419-62.03112H132.028982c-27.123411 0-53.273785 11.311557-71.274973 31.623708-0.486519 0.608148-0.973037 1.216296-1.459556 1.702815-1.216296 1.459556-2.432593 2.919112-3.52726 4.500297C44.334006 103.217959 38.495783 121.827295 38.495783 140.92315V645.564556c0 30.042523 19.460744 56.679416 48.165341 65.436751 0.243259 0.12163 0.486519 0.12163 0.729778 0.243259 0.12163 0 0.12163 0 0.243259 0.12163 10.946668 3.284 22.379855 4.865186 33.934671 4.865185H938.555173c1.216296-0.486519 2.432593-1.216296 3.770519-1.337926 23.596152-4.013778 37.461931-17.636299 41.840599-41.11082 0.729778-4.743556 1.337926-9.243853 1.337926-13.744151zM512 317.286138c138.779427 116.764461 277.315596 233.285663 417.06806 351.023162-61.179713 3.52726-821.486637 1.459556-830.243972-2.310963 137.684761-116.277943 275.247892-232.312626 413.175912-348.712199zM635.697351 359.005107c-35.515857-29.920893-70.423566-59.476897-105.452904-88.911272-12.649483-10.703409-23.717781-10.825039-36.245635-0.243259-14.960447 12.527854-29.799264 25.177337-44.63808 37.705191-19.582373 16.541632-39.164746 33.083264-59.112009 49.868155-92.560162-85.870531-184.755434-171.254543-276.829077-256.638556 0.364889-0.729778 0.608148-1.459556 0.973037-2.189333h807.620858C826.291008 185.68286 731.298254 272.03991 635.697351 359.005107z m-281.815892 29.312745c-89.51942 75.653641-178.065804 150.334244-267.585224 225.987885v-473.990735c89.76268 83.194679 178.309063 165.294691 267.585224 248.00285z m318.426416 1.459556c88.668013-80.640456 176.606248-160.551134 265.51752-241.31322V613.454329c-88.911272-74.923863-176.727877-148.874688-265.51752-223.676921z m0 0"  horiz-adv-x="1024" />

    
    <glyph glyph-name="leimupinleifenleileibie--" unicode="&#58891;" d="M352.903955 896h-231.41243C52.067797 896 0 843.932203 0 780.293785v-231.412429c0-63.638418 52.067797-115.706215 115.706215-115.706215h231.412429c63.638418 0 115.706215 52.067797 115.706215 115.706215V780.293785c5.785311 63.638418-46.282486 115.706215-109.920904 115.706215z m46.282486-341.333333c0-34.711864-28.926554-57.853107-57.853108-57.853108H133.062147c-34.711864 0-57.853107 28.926554-57.853107 57.853108V768.723164c0 34.711864 28.926554 57.853107 57.853107 57.853107h208.271186c34.711864 0 57.853107-28.926554 57.853108-57.853107v-214.056497zM902.508475 896h-231.41243c-63.638418 0-115.706215-52.067797-115.706214-115.706215v-231.412429c0-63.638418 52.067797-115.706215 115.706214-115.706215h231.41243c63.638418 0 115.706215 52.067797 115.706214 115.706215V780.293785c5.785311 63.638418-52.067797 115.706215-115.706214 115.706215z m52.067796-341.333333c0-34.711864-28.926554-57.853107-57.853107-57.853108h-208.271187c-34.711864 0-57.853107 28.926554-57.853107 57.853108V768.723164c0 34.711864 28.926554 57.853107 57.853107 57.853107h208.271187c34.711864 0 57.853107-28.926554 57.853107-57.853107v-214.056497zM352.903955 340.61016900000004h-231.41243c-63.638418 0-115.706215-52.067797-115.706214-115.706214v-231.41243c0-63.638418 52.067797-115.706215 115.706214-115.706214h231.41243c63.638418 0 115.706215 52.067797 115.706214 115.706214v231.41243c0 63.638418-52.067797 115.706215-115.706214 115.706214z m46.282486-341.333333c0-34.711864-28.926554-57.853107-57.853108-57.853107H133.062147c-34.711864 0-57.853107 28.926554-57.853107 57.853107v208.271187c0 34.711864 28.926554 57.853107 57.853107 57.853107h208.271186c34.711864 0 57.853107-28.926554 57.853108-57.853107v-208.271187zM902.508475 340.61016900000004h-231.41243c-63.638418 0-115.706215-52.067797-115.706214-115.706214v-231.41243c0-63.638418 52.067797-115.706215 115.706214-115.706214h231.41243c63.638418 0 115.706215 52.067797 115.706214 115.706214v231.41243c5.785311 63.638418-52.067797 115.706215-115.706214 115.706214z m52.067796-341.333333c0-34.711864-28.926554-57.853107-57.853107-57.853107h-208.271187c-34.711864 0-57.853107 28.926554-57.853107 57.853107v208.271187c0 34.711864 28.926554 57.853107 57.853107 57.853107h208.271187c34.711864 0 57.853107-28.926554 57.853107-57.853107v-208.271187z"  horiz-adv-x="1024" />

    
    <glyph glyph-name="shoucang" unicode="&#58880;" d="M727.908848 847.592727c-85.488485 0-164.770909-43.008-217.398303-113.788121-52.099879 70.749091-131.909818 113.788121-217.398303 113.788121-153.972364 0-279.117576-136.998788-279.117575-305.120969 0-100.196848 44.714667-170.97697 80.95806-227.576243 104.727273-164.739879 368.515879-369.105455 379.87297-377.607757a57.157818 57.157818 0 0 1 71.307636 0c11.29503 8.502303 274.556121 213.426424 379.87297 377.607757 36.212364 56.599273 80.92703 127.379394 80.92703 227.576243 0.062061 168.153212-125.052121 305.12097-279.024485 305.120969z m126.200243-530.990545c-96.783515-135.881697-301.707636-290.971152-311.916606-298.325334-9.619394-7.354182-20.945455-11.326061-31.68194-11.32606-11.326061 0-22.062545 3.382303-31.712969 11.32606-10.20897 7.354182-211.161212 164.150303-311.916606 303.972849-32.271515 50.982788-83.781818 114.377697-83.781818 203.80703 0 150.590061 83.781818 256.465455 221.339151 256.465455 76.427636 0 159.650909-73.045333 206.072242-136.440243 46.979879 63.394909 129.644606 136.440242 206.072243 136.440243 138.115879 0 227.576242-105.875394 227.576242-256.465455 0-89.429333-57.188848-159.092364-90.049939-209.454545z"  horiz-adv-x="1024" />

    
    <glyph glyph-name="daifukuan" unicode="&#58903;" d="M0-128V896h1181.538462v-1024H0zM78.769231 817.230769v-866.461538h1024v275.692307H551.384615V541.538462h551.384616V817.230769H78.769231z m551.384615-512.039384h472.615385V462.769231H630.153846v-157.577846zM713.019077 344.615385a39.384615 39.384615 0 1 1 0 78.76923 39.384615 39.384615 0 0 1 0-78.76923"  horiz-adv-x="1181" />

    
    <glyph glyph-name="liebiao" unicode="&#58913;" d="M192 672c0-35.36-28.64-64-64-64H64c-35.36 0-64 28.64-64 64v64c0 35.36 28.64 64 64 64h64c35.36 0 64-28.64 64-64v-64zM192 352c0-35.328-28.64-64-64-64H64c-35.36 0-64 28.672-64 64v64c0 35.36 28.64 64 64 64h64c35.36 0 64-28.64 64-64v-64zM192 32c0-35.328-28.64-64-64-64H64c-35.36 0-64 28.672-64 64v64c0 35.36 28.64 64 64 64h64c35.36 0 64-28.64 64-64v-64zM1024 672c0-35.36-28.64-64-64-64H384c-35.36 0-64 28.64-64 64v64c0 35.36 28.64 64 64 64h576c35.36 0 64-28.64 64-64v-64zM1024 352c0-35.328-28.64-64-64-64H384c-35.36 0-64 28.672-64 64v64c0 35.36 28.64 64 64 64h576c35.36 0 64-28.64 64-64v-64zM1024 32c0-35.328-28.64-64-64-64H384c-35.36 0-64 28.672-64 64v64c0 35.36 28.64 64 64 64h576c35.36 0 64-28.64 64-64v-64z"  horiz-adv-x="1024" />

    
    <glyph glyph-name="wode" unicode="&#58887;" d="M513.536 822.272c125.952 0 228.352-102.4 228.352-228.352s-102.4-228.352-228.352-228.352-228.352 102.4-228.352 228.352 102.4 228.352 228.352 228.352m0 71.68C347.648 893.952 213.504 759.808 213.504 593.92s134.144-300.032 300.032-300.032 300.032 134.144 300.032 300.032S679.424 893.952 513.536 893.952zM40.96-125.44c-19.968 0-35.84 15.872-35.84 35.84 0 120.32 40.96 222.208 118.272 294.912 88.576 82.944 219.648 124.928 390.144 124.928 170.496 0 302.08-41.472 390.656-123.904 77.824-72.192 118.784-174.08 118.784-294.4 0-19.968-15.872-35.84-35.84-35.84s-35.84 15.872-35.84 35.84c0 99.84-33.28 183.296-96.256 241.664-74.752 69.632-189.952 104.96-342.016 104.96-151.552 0-266.752-35.328-340.992-105.472C109.568 94.208 76.8 10.24 76.8-89.6c0-19.968-16.384-35.84-35.84-35.84z"  horiz-adv-x="1024" />

    
    <glyph glyph-name="weibiaoti2fuzhi05" unicode="&#58899;" d="M650.35377778 718.96177778l123.79022222 0L512 893.72444445 249.856 718.96177778 366.36444445 718.96177778l0-313.11644445 283.98933333 0L650.35377778 718.96177778zM424.61866667 769.93422222L512 828.18844445l87.38133333-58.25422223L599.38133333 456.81777778 424.61866667 456.81777778 424.61866667 769.93422222zM643.072 100.01066666999998l87.38133333 116.50844444 203.88977778 0-72.81777778-283.98933333L162.47466667-67.47022221999998l-72.81777778 283.98933333 203.88977778 0 87.38133333-116.50844444L643.072 100.01066666999998zM883.37066667 646.144l-167.48088889 0c-14.56355555 0-29.12711111-14.56355555-29.12711111-29.12711111 0-14.56355555 14.56355555-29.12711111 29.12711111-29.12711111l123.79022222 0c14.56355555 0 21.84533333-7.28177778 29.12711111-21.84533333L927.06133333 311.18222221999997c7.28177778-14.56355555-7.28177778-36.40888889-29.12711111-36.40888889l-182.04444444 0c-7.28177778 0-14.56355555-7.28177778-21.84533333-14.56355555l-65.536-94.66311111c-7.28177778-7.28177778-14.56355555-14.56355555-21.84533334-14.56355556L424.61866667 150.98311110999998c-7.28177778 0-14.56355555 7.28177778-21.84533334 14.56355556L337.23733333 260.20977777999997C329.95555555 267.49155555000004 322.67377778 274.77333333 315.392 274.77333333L126.06577778 274.77333333C111.50222222 274.77333333 96.93866667 289.33688888999995 96.93866667 311.18222221999997l58.25422222 254.86222223c0 14.56355555 14.56355555 21.84533333 29.12711111 21.84533333l123.79022222 0c14.56355555 0 29.12711111 14.56355555 29.12711111 29.12711111 0 14.56355555-14.56355555 29.12711111-29.12711111 29.12711111L140.62933333 646.144c-14.56355555 0-21.84533333-7.28177778-29.12711111-21.84533333L31.40266667 252.928c0-7.28177778 0-7.28177778 0-14.56355555l87.38133333-342.24355556c0-14.56355555 14.56355555-21.84533333 29.12711111-21.84533334l742.74133334 0c14.56355555 0 21.84533333 7.28177778 29.1271111 21.84533334l87.38133334 342.24355556c0 7.28177778 0 7.28177778 0 14.56355555l-87.38133334 371.37066667C905.216 638.8622222199999 897.93422222 646.144 883.37066667 646.144z"  horiz-adv-x="1024" />

    
    <glyph glyph-name="konggouwuche" unicode="&#58974;" d="M591.792208 31.141126h-66.493507c-3.54632 0-6.649351-3.10303-6.64935-6.649351s3.10303-6.649351 6.64935-6.649351h66.493507c3.54632 0 6.649351 3.10303 6.64935 6.649351s-3.10303 6.649351-6.64935 6.649351zM998.289177 31.141126h-362.611255c-3.54632 0-6.649351-3.10303-6.649351-6.649351s3.10303-6.649351 6.649351-6.649351h362.611255c3.54632 0 6.649351 3.10303 6.649351 6.649351s-2.65974 6.649351-6.649351 6.649351zM1013.466838 75.634815a17.731602 17.731602 0 1 1 16.39759 31.44452 17.731602 17.731602 0 1 1-16.39759-31.44452ZM1217.274459 426.555844c-14.185281 0-26.154113-11.525541-26.154113-26.154112s11.525541-26.154113 26.154113-26.154113c14.185281 0 26.154113 11.525541 26.154112 26.154113s-11.525541 26.154113-26.154112 26.154112z m0-38.566234c-7.092641 0-12.855411 5.762771-12.855411 12.855412s5.762771 12.855411 12.855411 12.855411c7.092641 0 12.855411-5.762771 12.855411-12.855411 0-7.535931-5.762771-12.855411-12.855411-12.855412 0-0.44329 0-0.44329 0 0zM1158.316883 27.594805c-14.185281 0-26.154113-11.525541-26.154112-26.154112 0-14.185281 11.525541-26.154113 26.154112-26.154113 14.185281 0 26.154113 11.525541 26.154113 26.154113s-11.525541 26.154113-26.154113 26.154112z m0-39.009524c-7.092641 0-12.855411 5.762771-12.855411 12.855412s5.762771 12.855411 12.855411 12.855411c7.092641 0 12.855411-5.762771 12.855411-12.855411s-5.762771-12.855411-12.855411-12.855412zM846.240693 806.455411c-19.061472 0-34.133333-15.071861-34.133334-34.133333s15.071861-34.133333 34.133334-34.133333c19.061472 0 34.133333 15.071861 34.133333 34.133333 0 18.618182-15.515152 34.133333-34.133333 34.133333z m0-54.967965c-11.525541 0-20.834632 9.309091-20.834632 20.834632s9.309091 20.834632 20.834632 20.834632 20.834632-9.309091 20.834632-20.834632-9.309091-20.834632-20.834632-20.834632zM289.468398 630.912554c-19.061472 0-34.133333-15.515152-33.690043-34.133333 0-19.061472 15.515152-34.133333 34.133333-33.690044 18.618182 0 34.133333 15.515152 33.690044 34.133334 0 18.618182-15.515152 33.690043-34.133334 33.690043z m0-54.967965c-11.525541 0-20.834632 9.752381-20.391342 20.834632 0 11.525541 9.752381 20.834632 20.834632 20.391342 11.525541 0 20.391342-9.309091 20.391342-20.834632 0-11.082251-9.309091-20.391342-20.834632-20.391342zM226.077922-21.1671c-23.494372 0-42.112554 19.061472-42.112554 42.112555 0 23.494372 19.061472 42.112554 42.112554 42.112554s42.112554-19.061472 42.112554-42.112554c0-23.494372-19.061472-42.112554-42.112554-42.112555z m0 70.926407c-15.958442 0-28.813853-12.855411-28.813853-28.813852s12.855411-28.813853 28.813853-28.813853 28.813853 12.855411 28.813853 28.813853-12.855411 28.813853-28.813853 28.813852zM465.897835 878.268398m-17.731601 0a17.731602 17.731602 0 1 1 35.463203 0 17.731602 17.731602 0 1 1-35.463203 0ZM388.426668 553.592134a17.731602 17.731602 0 1 1 16.39759 31.44452 17.731602 17.731602 0 1 1-16.39759-31.44452ZM589.132468 832.609524l27.483982 21.721212V816.207792zM0.88658 242.590476h26.154113s-8.422511-31.916883-12.855412-26.154112-13.298701 26.154113-13.298701 26.154112zM69.596537 549.790476h13.741991v19.504762zM1180.924675-114.701299h-629.471861c-3.54632 0-6.649351-3.10303-6.649351-6.64935s3.10303-6.649351 6.649351-6.649351h629.471861c3.54632 0 6.649351 3.10303 6.649351 6.649351s-3.10303 6.649351-6.649351 6.64935zM1337.406061-114.701299h-89.101299c-3.54632 0-6.649351-3.10303-6.649351-6.64935s3.10303-6.649351 6.649351-6.649351h89.101299c3.54632 0 6.649351 3.10303 6.64935 6.649351s-2.65974 6.649351-6.64935 6.64935zM343.549784-114.701299H244.696104c-3.54632 0-6.649351-3.10303-6.649351-6.64935s3.10303-6.649351 6.649351-6.649351h98.85368c3.54632 0 6.649351 3.10303 6.64935 6.649351s-3.10303 6.649351-6.64935 6.64935zM170.666667-114.701299H109.049351c-3.54632 0-6.649351-3.10303-6.649351-6.64935s3.10303-6.649351 6.649351-6.649351h61.617316c3.54632 0 6.649351 3.10303 6.64935 6.649351s-3.10303 6.649351-6.64935 6.64935zM1393.260606 745.724675h-15.515151v13.741992c0 3.54632-3.10303 6.649351-6.649351 6.64935s-6.649351-3.10303-6.649351-6.64935v-13.741992h-15.515151c-3.54632 0-6.649351-3.10303-6.649351-6.64935s3.10303-6.649351 6.649351-6.649351h15.515151V718.683983c0-3.54632 3.10303-6.649351 6.649351-6.649351s6.649351 3.10303 6.649351 6.649351v13.741991h15.515151c3.54632 0 6.649351 3.10303 6.649351 6.649351s-3.10303 6.649351-6.649351 6.64935zM290.354978 741.735065h16.401732v-14.628571c0-3.54632 3.10303-6.649351 6.649351-6.649351s6.649351 3.10303 6.64935 6.649351v14.628571h16.401732c3.54632 0 6.649351 3.10303 6.649351 6.649351s-3.10303 6.649351-6.649351 6.64935h-16.401732v14.628572c0 3.54632-3.10303 6.649351-6.64935 6.64935s-6.649351-3.10303-6.649351-6.64935v-14.628572h-16.401732c-3.54632 0-6.649351-3.10303-6.64935-6.64935s2.65974-6.649351 6.64935-6.649351zM448.609524 98.077922h-15.071862v13.298701c0 3.54632-3.10303 6.649351-6.64935 6.649351s-6.649351-3.10303-6.649351-6.649351v-13.298701h-15.071861c-3.54632 0-6.649351-3.10303-6.649351-6.649351s3.10303-6.649351 6.649351-6.64935h15.071861v-13.298702c0-3.54632 3.10303-6.649351 6.649351-6.64935s6.649351 3.10303 6.64935 6.64935v13.298702h15.071862c3.54632 0 6.649351 3.10303 6.64935 6.64935s-3.10303 6.649351-6.64935 6.649351zM922.48658-62.393074h6.206061v-5.31948c0-3.54632 3.10303-6.649351 6.64935-6.649351s6.649351 3.10303 6.649351 6.649351v5.31948h6.206061c3.54632 0 6.649351 3.10303 6.64935 6.649351s-3.10303 6.649351-6.64935 6.649351h-6.206061V-43.774892c0 3.54632-3.10303 6.649351-6.649351 6.649351s-6.649351-3.10303-6.64935-6.649351v-5.31948h-6.206061c-3.54632 0-6.649351-3.10303-6.649351-6.649351s2.65974-6.649351 6.649351-6.649351zM1248.304762 157.478788c3.54632 0 6.649351 3.10303 6.649351 6.649351v5.31948h6.20606c3.54632 0 6.649351 3.10303 6.649351 6.649351s-3.10303 6.649351-6.649351 6.64935h-6.20606v5.319481c0 3.54632-3.10303 6.649351-6.649351 6.649351s-6.649351-3.10303-6.649351-6.649351v-5.319481h-6.20606c-3.54632 0-6.649351-3.10303-6.649351-6.64935s3.10303-6.649351 6.649351-6.649351h6.20606v-5.31948c0-3.54632 3.10303-6.649351 6.649351-6.649351zM347.982684 419.463203h-8.422511v7.535931c0 2.65974-1.77316 4.4329-4.4329 4.432901s-4.4329-1.77316-4.432901-4.432901v-7.535931h-8.422511c-2.65974 0-4.4329-1.77316-4.4329-4.4329s1.77316-4.4329 4.4329-4.4329h8.422511v-7.535931c0-2.65974 1.77316-4.4329 4.432901-4.432901s4.4329 1.77316 4.4329 4.432901v7.535931h8.422511c2.65974 0 4.4329 1.77316 4.4329 4.4329s-2.21645 4.4329-4.4329 4.4329zM592.678788 492.162771l471.660606-4.432901-93.977489-181.305628-341.333334-7.09264zM649.215557 442.779747a12.411997 12.411997 0 1 1 1.307841 24.789518 12.411997 12.411997 0 1 1-1.307841-24.789518ZM691.372883 451.72142l0.61174 8.843636 127.35723-8.794874-0.607308-8.843637zM919.38355 433.205195m-18.618182 0a18.618182 18.618182 0 1 1 37.236364 0 18.618182 18.618182 0 1 1-37.236364 0ZM886.580087 350.753247m-20.391342 0a20.391342 20.391342 0 1 1 40.782684 0 20.391342 20.391342 0 1 1-40.782684 0ZM688.872727 350.753247m-24.824242 0a24.824242 24.824242 0 1 1 49.648485 0 24.824242 24.824242 0 1 1-49.648485 0ZM746.500433 391.979221m-16.401732 0a16.401732 16.401732 0 1 1 32.803464 0 16.401732 16.401732 0 1 1-32.803464 0ZM812.550649 384m-8.42251 0a8.422511 8.422511 0 1 1 16.845021 0 8.422511 8.422511 0 1 1-16.845021 0ZM597.674214 564.842222a8.422427 8.422427 0 1 1 0.887463 16.821459 8.422427 8.422427 0 1 1-0.887463-16.821459ZM1087.833766 634.902165c3.54632 0 6.649351 3.10303 6.649351 6.64935v30.143723c0 3.54632-3.10303 6.649351-6.649351 6.649351s-6.649351-3.10303-6.64935-6.649351v-30.143723c0-3.54632 2.65974-6.649351 6.64935-6.64935zM1130.8329 669.478788c-3.10303 1.77316-7.092641 0.44329-8.8658-2.65974l-16.401732-28.813853c-1.77316-3.10303-0.88658-7.092641 2.65974-8.865801 3.10303-1.77316 7.092641-0.88658 9.309091 2.65974l16.401732 28.813853c1.32987 3.10303 0 7.092641-3.103031 8.865801zM1160.976623 636.232035c-1.77316 3.10303-5.762771 4.4329-8.8658 3.10303l-24.824243-12.412121c-3.54632-1.32987-4.87619-5.319481-3.54632-8.865801 1.32987-3.54632 5.319481-4.87619 8.865801-3.54632 0 0 0.44329 0 0.44329 0.44329l24.824242 12.412121c3.10303 1.77316 4.4329 5.762771 3.10303 8.865801zM585.142857 339.670996c3.54632 0 6.649351 3.10303 6.649351 6.64935v1.77316c-0.44329 2.65974-66.050216 278.386147-81.122078 338.230304-16.401732 64.720346-66.493506 66.050216-66.936797 66.050216l-59.400865 3.10303c-3.54632 0-6.649351-2.65974-7.092641-6.20606s2.65974-6.649351 6.20606-7.092641l59.844156-3.10303c0.44329 0 40.339394-0.88658 54.081386-55.854546 15.071861-59.844156 80.235498-335.127273 81.122077-337.787013 0.88658-3.54632 3.54632-5.762771 6.649351-5.76277zM663.161905 135.314286c-29.257143 1.77316-54.524675-20.834632-55.854546-50.535065-1.77316-29.257143 20.834632-54.524675 50.535065-55.854546h2.659741c29.257143-0.88658 53.638095 22.607792 54.524675 51.864935s-22.607792 54.081385-51.864935 54.524676z m37.236363-55.411256c-1.32987-22.164502-19.948052-39.009524-42.112554-37.679653-22.164502 1.32987-39.009524 19.948052-37.679653 42.112554 1.32987 21.277922 18.618182 37.679654 39.896104 37.679653h2.21645c22.164502-0.88658 39.009524-19.504762 37.679653-42.112554 0 0.44329 0 0.44329 0 0zM926.47619 129.551515c-29.257143 1.77316-54.524675-20.834632-55.854545-50.535065-1.77316-29.257143 20.834632-54.524675 50.535065-55.854545h2.65974c29.257143-0.88658 53.638095 22.607792 54.524676 51.864935s-22.607792 54.081385-51.864936 54.524675z m37.236364-54.967965c-1.32987-22.164502-19.948052-39.009524-42.112554-37.679654-22.164502 1.32987-39.009524 19.948052-37.679654 42.112554 1.32987 21.277922 18.618182 37.679654 39.896104 37.679654h2.21645c21.721212-1.32987 38.566234-19.948052 37.679654-42.112554zM1054.143723 590.12987L633.904762 582.150649c-3.54632 0-6.649351-3.10303-6.649351-6.64935s3.10303-6.649351 6.649351-6.649351l421.125541 7.979221h0.88658c7.092641 1.32987 22.607792 1.77316 28.370563-4.432901 2.65974-2.65974 3.10303-7.535931 1.32987-13.298701L1055.030303 492.606061h-341.333333c-2.65974 0-4.4329-1.77316-4.432901-4.432901s1.77316-4.4329 4.432901-4.4329h337.343723l-64.277057-138.749784c-4.87619-10.195671-21.277922-36.793074-39.896104-37.679653l-348.869264 1.77316c-5.319481 0-11.082251-0.88658-16.401731-2.216451-29.257143-3.98961-50.091775-31.030303-46.102165-60.730735 1.32987-10.195671 5.762771-19.504762 11.968831-27.040693 2.65974-3.54632 6.206061-7.092641 10.195671-9.309091 8.865801-6.649351 19.948052-10.195671 31.030303-10.195671h5.762771c6.649351-0.44329 13.298701-0.88658 19.948052-0.88658 57.184416-0.44329 389.651948-1.77316 392.754978-1.77316 3.54632 0 6.649351 3.10303 6.649351 6.64935s-3.10303 6.649351-6.649351 6.649351-335.570563 1.32987-392.754978 1.77316c-6.649351 0-12.855411 0.44329-19.504762 0.88658-13.741991 1.32987-23.937662 3.54632-30.143723 7.979221-1.77316 1.32987-3.54632 2.65974-5.31948 4.876191v0.44329l-1.32987 1.32987c-3.98961 5.762771-5.762771 14.628571-5.319481 28.370562 0.44329 25.267532 17.288312 35.019913 31.916883 38.122944 4.4329 0.88658 8.865801 1.77316 13.298701 1.77316l349.312555-1.77316c31.030303 1.32987 50.978355 43.442424 51.864935 45.215585l99.296969 214.552381 0.44329 0.88658c3.10303 11.082251 1.77316 19.948052-3.98961 26.597402-11.968831 12.855411-35.906494 9.309091-40.782684 8.865801z"  horiz-adv-x="1400" />

    
    <glyph glyph-name="red" unicode="&#58882;" d="M336-76.79999999999995c-60.8 128-28.8 201.6 19.2 268.8 51.2 76.8 64 150.4 64 150.4s41.6-51.2 25.6-134.4c70.4 80 83.2 208 73.6 256 160-112 230.4-358.4 137.6-537.6 492.8 281.6 121.6 700.8 57.6 745.6 22.4-48 25.6-128-19.2-166.4-73.6 281.6-256 336-256 336 22.4-144-76.8-300.8-172.8-419.2-3.2 57.6-6.4 96-38.4 153.6-6.4-105.6-86.4-188.8-108.8-294.4C89.6 137.60000000000002 140.8 35.200000000000045 336-76.79999999999995L336-76.79999999999995z"  horiz-adv-x="1024" />

    
    <glyph glyph-name="meiyouguanzhu" unicode="&#58925;" d="M396.889651 54.24128h670.22336a10.25024 10.25024 0 0 0 0-20.50048H396.889651a10.24512 10.24512 0 0 0 0 20.50048zM177.113651-7.2448h302.89408a10.25024 10.25024 0 0 0 0-20.49536H177.113651a10.24512 10.24512 0 0 0 0 20.49536z m413.38368 0h754.15552a10.25024 10.25024 0 0 0 0-20.49536H590.497331a10.24512 10.24512 0 0 0 0 20.49536z m-510.81216 0h44.49792a10.25024 10.25024 0 0 0 0-20.49536h-44.50816a10.24512 10.24512 0 0 0 0 20.49536h0.01024z m1023.62624 61.48608h30.22336a10.24512 10.24512 0 0 0 0-20.50048h-30.22336a10.25024 10.25024 0 0 0 0 20.50048z m303.49312-61.48608h54.36928a10.25024 10.25024 0 0 0 0-20.49536h-54.36928a10.24512 10.24512 0 0 0 0 20.49536z m-334.89408-98.37568h110.64832a10.24512 10.24512 0 0 0 0-20.50048h-110.64832a10.25024 10.25024 0 0 0 0 20.50048z m-47.08864 0h15.96416a10.24512 10.24512 0 0 0 0-20.50048h-15.96416a10.25024 10.25024 0 0 0 0 20.50048z m-402.9184 0h174.81216a10.25024 10.25024 0 0 0 0-20.50048h-174.8224a10.24512 10.24512 0 0 0 0 20.50048h0.01024z m262.48704 0h110.64832a10.25024 10.25024 0 0 0 0-20.50048h-110.63808a10.25024 10.25024 0 0 0 0 20.50048h-0.01024zM328.865331 54.24128h30.22336a10.24512 10.24512 0 0 0 0-20.50048h-30.22336a10.25024 10.25024 0 0 0 0 20.50048z m198.8352-61.48608h23.9872a10.25024 10.25024 0 0 0 0-20.49536h-23.9872a10.25024 10.25024 0 0 0 0 20.49536zM116.846131 618.93632c-30.976 0-56.0896 25.1136-56.0896 56.0896s25.1136 56.0896 56.0896 56.0896 56.0896-25.1136 56.0896-56.0896-25.1136-56.0896-56.0896-56.0896z m0.19456 25.64608a30.25408 30.25408 0 0 1 0.0256 60.50304h-0.02048a30.24896 30.24896 0 0 1-30.23872-30.26432 30.24384 30.24384 0 0 1 30.2336-30.23872z m534.65088 205.9264a5.2992 5.2992 0 1 0 0-10.5984h-40.19712v-40.19712a5.2992 5.2992 0 0 0-10.5984 0v40.19712h-40.20736a5.29408 5.29408 0 0 0 0 10.58816h40.20736V890.70592a5.29408 5.29408 0 0 0 10.58816 0v-40.20736l40.20736 0.01024zM88.030771 394.13248a3.82464 3.82464 0 1 0-0.02048-7.6544l-37.94944-0.01536v-38.14912a3.81952 3.81952 0 1 0-7.6544-0.00512V386.49856l-38.58432 0.01536a3.82976 3.82976 0 0 0 0.0256 7.65952l38.57408-0.01536v38.08768a3.82976 3.82976 0 1 0 7.66464 0v-38.11328h37.94432z m1403.44832 193.08544a1.75616 1.75616 0 0 0-2.4832-2.47808l-17.3824 17.3824-17.38752-17.3824a1.75104 1.75104 0 0 0-2.47808 0 1.7408 1.7408 0 0 0 0 2.47808l17.3824 17.3824-17.3824 17.38752a1.74592 1.74592 0 0 0 0 2.4832 1.75104 1.75104 0 0 0 2.47808 0l17.38752-17.3824 17.3824 17.3824a1.75616 1.75616 0 1 0 2.4832-2.4832l-17.38752-17.38752 17.38752-17.3824z m-366.9248-90.8544c-4.46464 4.45952-8.91904 8.93952-13.40416 13.38368-0.49664 0.4864-0.4608 0.74752 0.01536 1.19296 1.09568 1.04448 2.12992 2.13504 3.21024 3.23072l0.55808-0.52224 13.54752-13.53216c0.45568-0.45056 0.40448-0.69632-0.01536-1.1008-1.08032-1.03936-2.11968-2.13504-3.23072-3.28192-0.29696 0.27136-0.49664 0.44032-0.68096 0.62976z m33.75104-25.78432l14.03904-14.06976c0.04096-0.03584 0.05632-0.0768 0.14848-0.25088-1.1776-1.16736-2.35008-2.34496-3.5584-3.47136-0.09216-0.08704-0.52224 0.03584-0.67584 0.18944-1.97632 1.93536-3.93216 3.90656-5.89312 5.8624l-7.64928 7.66464-0.53248 0.55296c0.09728 0.13824 0.16384 0.27648 0.26112 0.384 1.03936 1.03936 2.0736 2.06336 3.0976 3.10272 0.26112 0.26112 0.4608 0.34816 0.76288 0.03584z m-1.06496 25.96352c-0.90624 0.9728-1.86368 1.89952-2.816 2.82624-0.26112 0.26112-0.34816 0.4608-0.0512 0.76288l13.83936 13.824c0.06144 0.06144 0.13824 0.09728 0.3072 0.20992 1.17248-1.1776 2.31424-2.31936 3.43552-3.4816 0.09216-0.08704 0.05632-0.34816 0.01024-0.49664-0.03584-0.11264-0.16896-0.19968-0.26112-0.28672-4.45952-4.45952-8.91904-8.90368-13.35808-13.37344-0.44544-0.4352-0.6912-0.42496-1.10592 0.01536z m-31.67744-26.10176c0.91136-0.96768 1.86368-1.88928 2.82112-2.82112 0.26112-0.26112 0.34816-0.4608 0.04096-0.77312l-13.82912-13.81376c-0.06144-0.06144-0.14848-0.1024-0.30208-0.21504-1.1776 1.18272-2.3296 2.31936-3.45088 3.4816-0.08704 0.08704-0.0512 0.34816 0 0.50688 0.03072 0.11264 0.17408 0.18944 0.26112 0.28672 4.4544 4.4544 8.91392 8.89344 13.35808 13.3632 0.43008 0.44032 0.6912 0.4352 1.1008 0v-0.01536z m16.59904 43.20768c0-2.79552-0.02048-5.59104 0.01024-8.38656 0.01024-0.60928-0.17408-0.79872-0.77824-0.77824a71.91552 71.91552 0 0 1-3.93216 0.00512c-0.44032 0-0.64 0.09728-0.64 0.58368V522.24c0 0.46592 0.14848 0.62464 0.60928 0.60928 1.36192-0.01536 2.71872-0.0256 4.06016 0 0.54784 0.0256 0.68096-0.17408 0.68096-0.67584-0.02048-2.83648-0.01024-5.67296-0.01024-8.51456v-0.01024z m-21.69344-26.26048c-0.03584-1.3312-0.03584-2.6624 0-3.9936 0-0.4608-0.1536-0.60928-0.60416-0.60928a3195.99616 3195.99616 0 0 1-17.16224 0c-0.49152 0-0.5888 0.20992-0.5888 0.64 0.03072 1.35168 0.03072 2.70848 0 4.05504-0.01024 0.50176 0.15872 0.65024 0.65024 0.65024 2.83136-0.01536 5.66784-0.00512 8.50944-0.00512 2.81088 0 5.632-0.01536 8.43776 0.00512 0.57344 0.00512 0.78336-0.13312 0.75776-0.7424z m60.74368 0.03584a97.3312 97.3312 0 0 1 0-4.05504c0-0.4352-0.14336-0.57344-0.57856-0.57344h-17.152c-0.52224 0-0.62976 0.19968-0.61952 0.67072 0.02048 1.32608 0.03072 2.6624 0 3.9936-0.02048 0.52736 0.15872 0.67584 0.68096 0.67584 2.83136-0.01536 5.66784-0.00512 8.50944-0.00512 2.82112 0 5.632-0.01536 8.43776 0.00512 0.54272 0 0.7424-0.13824 0.72192-0.71168z m-39.05024-34.45248c0-2.83648-0.02048-5.67296 0-8.50432 0.01024-0.55296-0.14848-0.73728-0.70144-0.72192a89.4464 89.4464 0 0 1-4.06016 0c-0.44032 0-0.57856 0.14848-0.57856 0.58368v17.15712c0 0.45056 0.13824 0.62464 0.60928 0.60928 1.3568-0.01536 2.70848-0.0256 4.04992 0 0.5376 0.0256 0.70144-0.1536 0.6912-0.67584-0.03072-2.816-0.01024-5.632-0.01024-8.448z m357.8624-101.14048a33.44384 33.44384 0 1 0 0.01024 66.87744 33.44384 33.44384 0 0 0-0.01024-66.87744z m-0.02048 10.20416a23.6544 23.6544 0 0 1 0.03584 47.31392h-0.03584a23.6544 23.6544 0 0 1 0-47.31392z m-417.00352 381.26592a24.27904 24.27904 0 1 0 0 48.55808 24.27904 24.27904 0 0 0 0-48.55808z m-0.256 11.17696a13.36832 13.36832 0 1 1 0.95744 26.72128 13.36832 13.36832 0 0 1-0.95744-26.72128zM551.825971 624.64512c37.51424 0 73.088-14.55104 100.25472-40.74496l13.58336-13.25568 13.57824 13.25568c27.16672 26.19392 62.7456 40.74496 100.25984 40.74496 79.22688 0 143.90272-64.67584 143.90272-143.90784 0-11.63776-2.25792-23.60832-6.47168-36.21888 0 0-1.93536-5.81632-1.93536-9.05728a19.46112 19.46112 0 0 1 19.4048-19.4048c9.37472 0 16.16896 9.37472 19.07712 15.8464 2.5856 5.82144 9.05728 32.66048 9.05728 48.83456 0 100.89984-81.81248 182.71744-182.71744 182.71744-41.71776 0-81.49504-13.90592-113.83296-39.77728-32.33792 25.87136-72.1152 39.77728-113.83296 39.77728-100.89472 0-182.71744-81.8176-182.71744-182.71744 0-128.71168 210.52928-278.1184 274.56-320.4864 0.32256-0.32256 0.96768-0.64512 0.96768-0.64512s6.46656-2.90816 10.02496-2.90816a19.47136 19.47136 0 0 1 19.40992 19.4048c0 6.78912-3.56352 12.93312-9.0624 16.16896-80.52224 51.7376-257.7408 186.27072-257.7408 288.46592 0.32256 79.22688 65.00352 143.90784 144.2304 143.90784zM955.742771 305.4592h-103.48032V408.94464c0 3.5584-2.9184 6.47168-6.47168 6.47168h-25.87136c-3.5584 0-6.46656-2.91328-6.46656-6.47168v-103.48032h-103.48544c-3.56352 0-6.47168-2.91328-6.47168-6.47168v-25.87136c0-3.56352 2.90816-6.47168 6.47168-6.47168h103.48544v-103.48544c0-3.5584 2.90304-6.47168 6.46656-6.47168h25.87136c3.54816 0 6.47168 2.90816 6.47168 6.47168V266.6496h103.48032c3.5584 0 6.47168 2.90304 6.47168 6.47168v25.87136c0 3.55328-2.91328 6.46656-6.47168 6.46656z"  horiz-adv-x="1536" />

    
    <glyph glyph-name="guanyuwomen" unicode="&#58900;" d="M512-66c-248.11875 0-450 201.88125-450 450s201.88125 450 450 450 450-201.88125 450-450-201.88125-450-450-450zM512 774.0375A390.4875 390.4875 0 0 1 121.9625 384c0-214.9875 174.9375-390.0375 390.0375-390.0375 214.9875 0 390.0375 174.99375 390.0375 390.0375S726.9875 774.0375 512 774.0375zM512 79.01250000000005a45 45 0 0 0-45 45V442.05a45 45 0 0 0 90 0v-318.0375a45 45 0 0 0-45-45zM512 613.725m-30.2625 0a30.2625 30.2625 0 1 1 60.525 0 30.2625 30.2625 0 1 1-60.525 0ZM512 613.66875m-60.3 0a60.3 60.3 0 1 1 120.6 0 60.3 60.3 0 1 1-120.6 0Z"  horiz-adv-x="1024" />

    
    <glyph glyph-name="shouye-jieri" unicode="&#59035;" d="M865.6 513.6C865.6 654.4 772.8 768 660.8 768c-113.6 0-204.8-113.6-204.8-254.4 0-124.8 72-228.8 168-251.2l-44.8-44.8h51.2c4.8-25.6 22.4-57.6 64-80 17.6-9.6 20.8-20.8 19.2-28.8 0-27.2-27.2-59.2-46.4-68.8L688 0c28.8 14.4 70.4 60.8 70.4 108.8 0 28.8-14.4 54.4-43.2 68.8-24 12.8-33.6 27.2-38.4 40h46.4l-41.6 41.6c104 12.8 184 121.6 184 254.4z m-320-46.4h-44.8V512h44.8v-44.8z m3.2 75.2l-44.8 3.2c11.2 137.6 126.4 174.4 131.2 176l6.4-20.8 6.4-20.8c-3.2-3.2-91.2-32-99.2-137.6zM396.8 228.8c-22.4 11.2-32 25.6-35.2 36.8h43.2L366.4 304c33.6 4.8 65.6 20.8 91.2 44.8-30.4 44.8-49.6 102.4-49.6 166.4 0 75.2 27.2 142.4 68.8 190.4-33.6 40-80 65.6-129.6 65.6-104-3.2-188.8-107.2-188.8-236.8 0-113.6 65.6-209.6 153.6-228.8L272 265.6h46.4c4.8-24 20.8-52.8 59.2-73.6 16-9.6 17.6-19.2 17.6-27.2 0-24-25.6-54.4-41.6-62.4l19.2-36.8c27.2 12.8 64 56 65.6 99.2-1.6 27.2-16 49.6-41.6 64z m-155.2 264h-41.6v41.6h41.6v-41.6z m3.2 68.8l-41.6 3.2c9.6 126.4 115.2 160 120 160l6.4-19.2 6.4-19.2c-3.2-1.6-84.8-27.2-91.2-124.8z"  horiz-adv-x="1024" />

    
    <glyph glyph-name="guanbi" unicode="&#59037;" d="M891.264-5.248a30.784 30.784 0 0 0-21.76 9.024L128.256 745.024a30.72 30.72 0 1 0 43.52 43.52l741.312-741.312a30.848 30.848 0 0 0-21.824-52.48M150.016-5.248a30.72 30.72 0 0 0-21.76 52.544l741.312 741.248a30.784 30.784 0 0 0 43.456-43.52L171.776 3.776a30.72 30.72 0 0 0-21.76-9.024"  horiz-adv-x="1024" />

    
    <glyph glyph-name="mima" unicode="&#58895;" d="M179.2 460.8c-30.72 0-51.2-20.48-51.2-51.2v-358.4c0-30.72 20.48-51.2 51.2-51.2h665.6c30.72 0 51.2 20.48 51.2 51.2v358.4c0 30.72-20.48 51.2-51.2 51.2h-665.6z m0 51.2h665.6c56.32 0 102.4-46.08 102.4-102.4v-358.4c0-56.32-46.08-102.4-102.4-102.4h-665.6c-56.32 0-102.4 46.08-102.4 102.4v358.4c0 56.32 46.08 102.4 102.4 102.4zM486.4 209.92c-30.72 10.24-51.2 40.96-51.2 71.68 0 40.96 35.84 76.8 76.8 76.8s76.8-35.84 76.8-76.8c0-35.84-20.48-61.44-51.2-71.68v-107.52h-51.2v107.52zM762.88 634.88c5.12-10.24 0-25.6-10.24-35.84-10.24-5.12-25.6 0-35.84 10.24C675.84 691.2 593.92 742.4 501.76 742.4 368.64 742.4 256 629.76 256 496.64c0-15.36-10.24-25.6-25.6-25.6S204.8 481.28 204.8 496.64C204.8 660.48 337.92 793.6 501.76 793.6c112.64 0 209.92-61.44 261.12-158.72z"  horiz-adv-x="1024" />

    
    <glyph glyph-name="Paypal" unicode="&#58908;" d="M475.733333 576s0-2.133333-2.133333-6.4c-10.666667-64-93.866667-571.733333-91.733333-578.133333 2.133333-6.4 4.266667-12.8 17.066666-12.8 12.8 0 123.733333-2.133333 136.533334 0 10.666667 2.133333 19.2 6.4 21.333333 21.333333s25.6 166.4 32 183.466667c6.4 17.066667 12.8 17.066667 27.733333 19.2 14.933333 2.133333 91.733333-6.4 142.933334 21.333333 44.8 23.466667 83.2 57.6 113.066666 138.666667 57.6 151.466667-34.133333 230.4-119.466666 230.4-87.466667 0-224-2.133333-249.6 0-29.866667 2.133333-27.733333-14.933333-27.733334-17.066667zM324.266667 729.6l-106.666667-657.066667s-4.266667-14.933333 27.733333-14.933333h125.866667c10.666667 0 19.2 8.533333 21.333333 17.066667l36.266667 217.6s2.133333 27.733333 46.933333 27.733333c40.533333 0 102.4-4.266667 123.733334 2.133333 21.333333 4.266667 100.266667 10.666667 149.333333 72.533334s64 91.733333 72.533333 164.266666c6.4 51.2-4.266667 123.733333-55.466666 160-55.466667 38.4-119.466667 38.4-119.466667 38.4s-268.8 2.133333-290.133333 0-32-27.733333-32-27.733333zM823.466667 571.733333c-21.333333 12.8-46.933333 19.2-70.4 19.2-87.466667 0-224-2.133333-249.6 0-27.733333 2.133333-25.6-12.8-25.6-14.933333 0 0 0-2.133333-2.133334-6.4-4.266667-29.866667-25.6-149.333333-44.8-273.066667 2.133333 8.533333 10.666667 23.466667 44.8 21.333334 40.533333 0 102.4-4.266667 123.733334 2.133333 21.333333 4.266667 100.266667 10.666667 149.333333 72.533333 51.2 59.733333 64 91.733333 72.533333 164.266667 2.133333 4.266667 2.133333 10.666667 2.133334 14.933333z"  horiz-adv-x="1024" />

    
    <glyph glyph-name="pinglun" unicode="&#58906;" d="M643.7 74.70000000000005c16.1 0-38.5 14.9-38.5 31.9l28.4 29.6h244.2c48.5 0 87.8 41.3 87.8 92.3V706.3c0 51-39.3 92.3-87.8 92.3H146.3c-48.5 0-87.8-41.3-87.8-92.3v-477.9c0-51 39.3-92.3 87.8-92.3h246.3l25.4-26.9c0-17-24.6-34.6-8.5-34.6H117c-64.6 0-117 55.1-117 123V737.1c0 67.9 52.4 123 117 123h790c64.6 0 117-55.1 117-123v-539.4c0-67.9-52.4-123-117-123H643.7zM405.6 134.89999999999998l111.2-135.4 110.6 135.4h88.9l-203.4-227-195.7 227zM292.6 521.8h29.3c16.1 0 29.3-13.8 29.3-30.8v-30.8c0-17-13.1-30.8-29.3-30.8h-29.3c-16.1 0-29.3 13.8-29.3 30.8V491c0 17 13.1 30.8 29.3 30.8M497.4 521.8h29.3c16.2 0 29.3-13.8 29.3-30.8v-30.8c0-17-13.1-30.8-29.3-30.8h-29.3c-16.1 0-29.3 13.8-29.3 30.8V491c0 17 13.1 30.8 29.3 30.8M702.2 521.8h29.3c16.1 0 29.3-13.8 29.3-30.8v-30.8c0-17-13.1-30.8-29.3-30.8h-29.3c-16.1 0-29.3 13.8-29.3 30.8V491c0 17 13.1 30.8 29.3 30.8"  horiz-adv-x="1024" />

    
    <glyph glyph-name="shouye3" unicode="&#58885;" d="M727.467-70.39999999999998h-136.533c-14.9333 0-25.6 12.8-25.6 25.6V241.067v8.53333h-106.667v-294.4c0-14.9333-12.8-25.6-25.6-25.6h-136.533c-70.4 0-128 64-128 140.8v234.667h-21.3333c-36.2667 0-66.1333 17.0667-78.9333 49.0667-10.6667 25.6-8.53333 66.1333 27.7333 106.667L418.133 797.8667c25.6 25.6 59.7333 40.5333 93.8667 40.5333 36.2667 0 70.4-14.9333 93.8667-40.5333l322.133-339.2c38.4-40.5333 40.5333-81.0667 27.7333-106.667-12.8-32-42.6667-49.0667-78.9333-49.0667h-21.3333v-234.667c0-76.8-55.4667-138.667-128-138.667ZM618.667-17.067000000000007h110.933c46.9333 0 74.6667 44.8 74.6667 87.4667V330.66700000000003c0 14.9333 12.8 25.6 25.6 25.6h46.9333c14.9333 0 25.6 6.4 29.8667 17.0667 0 2.13333 8.53333 21.3333-19.2 49.0667l-320 339.2c-29.8667 32-81.0667 32-110.933 0L134.4 422.4c-25.6-27.7333-19.2-46.9333-19.2-49.0667 4.26667-12.8 14.9333-17.0667 29.8667-17.0667H192c14.9333 0 25.6-12.8 25.6-25.6v-260.267c0-42.6667 27.7333-87.4667 74.6667-87.4667H405.333V241.067c0 17.0667 0 36.2667 12.8 49.0667 12.8 12.8 32 12.8 38.4 12.8h108.8c6.4 0 25.6 0 38.4-12.8 12.8-12.8 12.8-32 12.8-49.0667v-258.133Z"  horiz-adv-x="1024" />

    
    <glyph glyph-name="fenxiang" unicode="&#59097;" d="M853.900332 797.342193h-166.697674c-27.215947 0-51.0299 20.41196-51.029901 51.0299S656.584718 896 683.800664 896h285.767442c27.215947 0 51.0299-20.41196 51.029901-51.0299v-295.973422c0-27.215947-20.41196-51.0299-51.029901-51.029901s-51.0299 20.41196-51.0299 51.029901V725.900332c-217.727575-146.285714-384.425249-340.199336-496.69103-588.54485-10.20598-23.813953-40.82392-34.019934-64.637874-23.813954-23.813953 10.20598-34.019934 40.82392-23.813953 64.637874 119.069767 258.551495 292.571429 466.07309 520.504983 619.162791zM367.415282 896c27.215947 0 51.0299-20.41196 51.029901-51.0299S398.033223 793.940199 367.415282 793.940199H115.667774c-10.20598 0-17.009967-6.803987-17.009967-17.009966v-789.262459c0-10.20598 6.803987-17.009967 17.009967-17.009967h789.262459c10.20598 0 17.009967 6.803987 17.009966 17.009967V249.621262c0 27.215947 20.41196 51.0299 51.029901 51.029901s51.0299-20.41196 51.0299-51.029901v-261.953488c0-64.637874-51.0299-115.667774-115.667774-115.667774H115.667774C51.0299-124.598007 0-73.568106 0-8.930233V780.332226C0 844.9701 51.0299 896 115.667774 896h251.747508z"  horiz-adv-x="1027" />

    
    <glyph glyph-name="pwd-hidden" unicode="&#58967;" d="M744.677515 555.072099c-13.74415 8.878964-27.60993 17.028151-41.597339 24.447559l-75.653641-75.653641c10.946668-11.311557 20.312151-24.2043 27.73156-38.313339l89.51942 89.519421zM172.531655 48.971137l33.083264-33.083264 107.155719 107.155719c-14.595558 7.419408-28.704597 15.325336-42.448747 23.596151l-97.790236-97.668606zM432.57584 242.97042399999998c-14.109039 7.297779-27.123411 16.663262-38.434968 27.60993l-91.343865-91.343865c14.352298-8.392446 28.826226-15.933484 43.421784-22.623114l86.357049 86.357049zM885.281387 695.675971l-33.083264 33.083264-115.669794-115.669794c14.230669-7.784297 27.974819-16.176743 41.23245-24.812448l107.520608 107.398978zM619.277349 429.671933c-5.959853 15.082076-14.838817 28.704597-26.028745 40.016153L425.76458 302.325692c11.311557-11.189928 24.934078-20.190521 40.016154-26.028745l153.496615 153.374986zM509.080888 504.717425c15.446965 0 30.285782-2.919112 43.908303-8.392446l36.732154 36.732154c-23.961041 13.62252-51.449341 21.406818-80.640457 21.406818-93.411569 0-165.051431-74.680603-165.051431-165.051432 0-29.799264 7.662668-57.409193 20.9203-81.126974l34.17793 34.17793c-5.351704 13.500891-8.392446 28.339708-8.392445 43.908303 0 65.315121 52.908897 118.345647 118.345646 118.345647zM674.13232 389.412519c0 27.366671-6.81126 53.273785-18.974225 76.140159l-35.880746-35.880745c5.230075-13.379261 8.149186-27.974819 8.149186-43.300155 0-62.274379-52.908897-118.345647-118.345647-118.345647-15.325336 0-29.920893 2.919112-43.300154 8.149187l-33.204894-33.204894c22.988003-11.919705 49.016748-18.487706 76.505048-18.487706 93.411569 0 165.051431 74.680603 165.051432 164.929801zM465.780734 276.17531799999995c-15.082076 5.959853-28.704597 14.838817-40.016154 26.028744l-31.745338-31.745338c11.433187-10.946668 24.325929-20.312151 38.434969-27.60993l33.326523 33.326524zM655.158095 465.552678c-7.419408 13.987409-16.784891 26.880152-27.73156 38.313339l-34.177931-34.177931c11.189928-11.311557 20.190521-24.934078 26.028745-40.016153l35.880746 35.880745zM261.929445 205.26523299999997C240.279368 220.22568 218.87255 237.132201 197.708992 255.619907c-34.299561 31.13719-68.477491 62.274379-96.57394 96.57394-6.203112 6.203112-9.365483 12.406224-15.568595 18.730966 3.162371 6.203112 9.365483 12.406224 12.406224 18.730966 24.934078 34.299561 56.071267 68.477491 90.249198 99.614681 96.57394 87.208457 202.391733 140.117354 320.73738 140.117353 51.6926 0 100.952607-10.095261 148.02328-28.704596l34.421191 34.42119c-53.638674 22.988003-113.72372 37.82682-179.40373 37.82682-298.965673 0-479.464069-305.168785-479.464069-305.168785s76.626678-108.615275 197.404917-194.242547l31.988597 31.745338zM777.760779 588.276993l-33.204894-33.204894c29.191115-18.852595 57.530823-40.989191 85.140754-65.923269 34.299561-31.13719 62.274379-65.43675 90.249198-99.614681 3.162371-6.203112 9.365483-12.406224 12.406224-18.730966-3.162371-6.203112-9.365483-12.406224-15.568595-18.730965-27.974819-31.13719-59.112009-65.43675-96.57394-96.57394-99.614681-84.046086-205.554104-136.954983-311.371897-136.954983-54.611712 0-109.101794 13.257632-162.862097 38.07008l-33.448153-33.448153c60.328305-30.529041 127.71113-51.327711 199.472621-51.327712 270.869224 0 479.464069 295.803302 479.464069 295.803302S914.594132 497.906165 777.760779 588.276993zM777.760779 588.276993c-13.136002 8.757335-26.880152 17.028151-41.23245 24.812448l-33.569783-33.569783c14.109039-7.419408 27.974819-15.568595 41.597339-24.447559l33.204894 33.204894zM302.797007 179.236489L270.321891 146.76137300000005c13.74415-8.392446 27.853189-16.298373 42.448747-23.596151l33.448153 33.448153c-14.595558 6.689631-29.069486 14.230669-43.421784 22.623114z"  horiz-adv-x="1024" />

    
    <glyph glyph-name="up-copy" unicode="&#59189;" d="M511.65492131 541.9520584300001l409.83004937-409.82303559c17.21185209-17.22307416 45.14919896-17.22307416 62.36245382 1e-8 17.22307416 17.21185209 17.22307416 45.14919896 0 62.3624538l-441.01197767 441.00917214c-17.21185208 17.22728244-45.14919896 17.22728243-62.36245382 1e-8l-441.0105749-441.0105749c-8.61293983-8.60873156-12.92081252-19.89532992-12.92081251-31.18052554s4.30787268-22.57319672 12.92081251-31.18052551c17.21185208-17.22728244 45.14919896-17.22728243 62.36245381 0l409.83145214 409.8258411z"  horiz-adv-x="1024" />

    
    <glyph glyph-name="star-on" unicode="&#59897;" d="M957.968 489.25c-4.93 15.282-18.025 26.496-33.76 28.786L665.263 556.14l-115.86 237.334c-7.043 14.393-21.539 23.565-37.404 23.565-15.867 0-30.361-9.173-37.404-23.565L358.733 556.14 99.788 518.0360000000001c-15.734-2.29-28.844-13.373-33.758-28.786-4.9-15.298-0.76-32.097 10.586-43.312l187.402-184.733-44.082-260.914c-2.654-15.793 3.775-31.834 16.623-41.27 12.848-9.435 29.852-10.703 43.953-3.193l231.602 123.194 231.619-123.194c6.051-3.179 12.715-4.842 19.395-4.842a41.37 41.37 0 0 1 24.557 8.035c12.848 9.436 19.264 25.477 16.625 41.27l-44.201 260.914 187.402 184.733c11.215 11.215 15.355 28.014 10.457 43.312z"  horiz-adv-x="1024" />

    
    <glyph glyph-name="star-off" unicode="&#59898;" d="M957.968 489.25c-4.93 15.282-18.025 26.496-33.76 28.786L665.263 556.14l-115.86 237.334c-7.043 14.393-21.539 23.565-37.404 23.565-15.867 0-30.361-9.173-37.404-23.565L358.733 556.14 99.788 518.0360000000001c-15.734-2.29-28.844-13.373-33.758-28.786-4.9-15.298-0.76-32.097 10.586-43.312l187.402-184.733-44.082-260.914c-2.654-15.793 3.775-31.834 16.623-41.27 12.848-9.435 29.852-10.703 43.953-3.193l231.602 123.194 231.619-123.194c6.051-3.179 12.715-4.842 19.395-4.842a41.37 41.37 0 0 1 24.557 8.035c12.848 9.436 19.264 25.477 16.625 41.27l-44.201 260.914 187.402 184.733c11.215 11.215 15.355 28.014 10.457 43.312z"  horiz-adv-x="1024" />

    


  </font>
</defs>
</svg>
